<?xml version="1.0" standalone="no"?>
<!DOCTYPE svg PUBLIC "-//W3C//DTD SVG 1.1//EN" "http://www.w3.org/Graphics/SVG/1.1/DTD/svg11.dtd" >
<svg xmlns="http://www.w3.org/2000/svg">
<metadata></metadata>
<defs>
<font id="pecitabook" horiz-adv-x="983" >
<font-face units-per-em="2048" ascent="1638" descent="-410" />
<missing-glyph horiz-adv-x="500" />
<glyph unicode="&#xfb01;" horiz-adv-x="1679" d="M-66 123q0 39 62 63q141 57 371 246q35 385 121.5 642t228.5 257q70 0 120 -34.5t70 -88.5q35 -90 35 -164q0 -152 -130 -328.5t-327 -346.5q-14 -205 -14 -315.5t4 -237.5q76 133 203 245q129 115 248 177q254 131 344 131q98 0 143 -80q18 -33 31.5 -66t30 -56.5 t48 -23.5t93 20.5t67.5 20.5q61 0 62 -61q0 -45 -62 -66q-111 -37 -166 -37t-90.5 24t-54 56.5t-32 65.5t-30 56.5t-38 23.5t-82 -21.5t-149.5 -62.5t-184 -111.5t-177 -157t-135 -210.5t-53 -261q0 -61 -61.5 -61t-61.5 61q0 10 -4 109q-16 295 -16.5 449.5t5.5 283.5 q-188 -141 -299 -186q-43 -16 -59 -17q-61 0 -62 62zM502 551q317 303 317 493q0 80 -30.5 122t-71.5 42q-49 0 -107 -161q-75 -224 -108 -496zM1417 826q0 38 26.5 56.5t55.5 18.5q98 0 98 -102q0 -35 -26.5 -56.5t-63.5 -21.5t-63.5 33.5t-26.5 71.5z" />
<glyph unicode="&#xfb02;" horiz-adv-x="1802" d="M-66 123q0 39 72 68.5t285 166.5q-6 41 -6 72q0 356 101 598t249 242q59 0 99 -35t57 -88q29 -94 28 -164q0 -410 -395 -682q6 -39 27.5 -119t27.5 -104q111 100 335 282.5t296 243.5q-4 90 -4 133q0 272 101.5 472t226.5 200q184 0 184 -303q0 -211 -381 -553 q41 -430 299 -430q80 0 172 30.5t98 30.5q61 0 62 -61q0 -45 -62 -66q-172 -57 -270 -57q-334 0 -410 459q-35 -29 -274.5 -224.5t-341.5 -291.5q25 -123 25 -189q0 -162 -61.5 -277.5t-166.5 -115.5q-82 0 -133 52t-51 136q0 172 252 428q-6 29 -29 116t-33 134 q-260 -166 -319.5 -166t-59.5 62zM246 -451q0 -66 61 -65q43 0 74 89t31 181q-1 21 -9 82q-158 -172 -157 -287zM408 438q289 219 288 545q0 59 -16 111.5t-45 52.5q-80 0 -152.5 -213t-74.5 -496zM1229 709q266 246 266 397q0 180 -61 180q-37 0 -91 -88 q-114 -188 -114 -489z" />
<glyph unicode="&#xfb03;" horiz-adv-x="2498" d="M-66 123q0 39 62 63q143 61 352 213q0 662 164 865q53 68 123 67q98 0 161.5 -135t63.5 -274q0 -281 -389 -584q0 -49 9 -143.5t12 -133.5q6 0 104 -4q295 -16 418 -16t160 2q-29 100 -43.5 149.5t-29 108.5t-20.5 96q-16 96 -16 176q0 356 100.5 596t247.5 240 q59 0 99 -34t57 -87q29 -94 28 -162q0 -131 -76.5 -268t-130 -190.5t-79.5 -53.5q-61 0 -62 62q0 25 49.5 74t113 164.5t63.5 193.5t-16.5 128t-45.5 50q-80 0 -152.5 -214t-72.5 -499q0 -162 108 -524q383 29 682 129q18 6 29 6q61 0 61 -61q0 -43 -61 -64 q-309 -102 -678 -131q23 -117 23 -174q0 -162 -60.5 -277.5t-165.5 -115.5q-55 0 -119.5 19.5t-64.5 62.5q0 61 62 61q2 0 22 -4q61 -16 102 -16t71 89t30 171t-23 176q-47 -2 -140 -2t-217 4t-231.5 10.5t-117.5 6.5q43 -467 53 -517q0 -61 -61 -61q-55 0 -62 61q0 2 -8 76 q-31 279 -41 404q-25 -14 -53 -37q-66 -49 -82 -49q-61 0 -62 61q0 41 62.5 85t122.5 71q-12 156 -17 219q-117 -80 -202 -125q-121 -66 -154 -66q-61 0 -62 62zM473 496q264 229 264 426q0 90 -35.5 188t-66.5 98q-55 0 -104.5 -204.5t-57.5 -507.5zM2150 307q0 62 61.5 62 t61.5 -62q0 -55 16.5 -109.5t45.5 -54.5q39 0 100.5 20.5t67.5 20.5q61 0 61 -61q0 -45 -61 -66q-111 -37 -168 -37q-88 0 -136.5 83t-48.5 204zM2236 826q0 38 27 56.5t55 18.5q98 0 99 -102q0 -35 -27 -56.5t-63.5 -21.5t-63.5 33.5t-27 71.5z" />
<glyph unicode="&#xfb04;" horiz-adv-x="2621" d="M-66 123q0 39 62 63q143 61 352 213q0 662 164 865q53 68 123 67q98 0 161.5 -135t63.5 -274q0 -285 -389 -588q6 -135 61 -713q109 154 281 371t301 358q-6 43 -6 80q0 356 99.5 598t246.5 242q59 0 99 -35t57 -88q29 -94 28 -164q0 -240 -395 -672q16 -98 51 -235 q113 104 347.5 294.5t289.5 235.5q-6 63 -6 131q0 272 101.5 472t226.5 200q53 0 92 -33t57 -82q35 -94 35 -188q0 -211 -375 -547q33 -201 123 -318.5t170 -117.5t172 30.5t99 30.5q61 0 61 -61q0 -45 -61 -66q-172 -57 -271 -57q-125 0 -238.5 127t-162.5 340 q-68 -57 -297.5 -244.5t-331.5 -281.5q27 -117 27 -187q0 -162 -60.5 -277.5t-158 -115.5t-144.5 53.5t-47 134.5q0 174 248 426q-14 55 -28.5 126t-20.5 96q-166 -193 -359.5 -449t-228.5 -326q0 -61 -61 -61q-55 0 -62 61q-68 686 -78 830q-117 -80 -202 -125 q-121 -66 -154 -66q-61 0 -62 62zM473 496q98 74 181 197.5t83 221t-35.5 195.5t-66.5 98q-55 0 -104.5 -204.5t-57.5 -507.5zM1065 -451q0 -66 61 -65q43 0 73 89t30 181q0 19 -8 80q-156 -166 -156 -285zM1231 481q285 332 285 502q0 59 -16.5 111.5t-45.5 52.5 q-76 0 -145.5 -198t-77.5 -468zM2048 709q266 246 266 397q0 59 -16.5 119.5t-44.5 60.5q-35 0 -90 -86q-115 -180 -115 -463v-28z" />
<glyph horiz-adv-x="2048" />
<glyph horiz-adv-x="2048" />
<glyph unicode="&#xd;" horiz-adv-x="681" />
<glyph unicode=" " />
<glyph unicode="!" horiz-adv-x="491" d="M123 1270q0 61 61 61q49 0 62 -61q29 -145 45 -250t16 -508q0 -61 -61.5 -61t-61.5 61q0 403 -18 522q-2 27 -22.5 125.5t-20.5 110.5zM184 82q0 61 74 61q82 0 82 -82q0 -61 -61 -61q-33 0 -64 25.5t-31 56.5z" />
<glyph unicode="&#x22;" horiz-adv-x="614" d="M82 1348q0 61 61.5 61t61.5 -61q0 -231 16 -297l160 157q61 61 90 62q61 -1 61 -62q0 -35 -31.5 -210t-31.5 -238.5t-61.5 -63.5t-61.5 62q0 86 35 278l-90 -94q-61 -61 -107 -61q-61 0 -82 118q-20 129 -20 349z" />
<glyph unicode="#" d="M82 225q0 49 61.5 60.5t81.5 15.5l94 152q-39 4 -98 10t-78 8q-61 6 -61 61q0 61 61 62l248 -23q6 10 35 67.5t66 57.5q61 0 61 -61q0 -14 -27 -68h76q12 2 41 2h29q23 41 54.5 104.5t72.5 63.5q61 0 61 -61q0 -20 -16.5 -52t-24.5 -51h21q61 0 61 -61t-61 -61l-90 -2 l-74 -130l123 -12q61 -8 61 -61q0 -61 -61 -62l-189 17l-53 -99q-31 -61 -65 -61q-61 0 -62 61q0 20 21 62l20 41q-55 0 -166 -15q-51 -92 -51 -129q0 -61 -61.5 -61t-61.5 61q0 45 23 103q-72 0 -72 61zM385 322q49 6 86 6h68l63 116h-143z" />
<glyph unicode="$" d="M82 307q0 61 61 62q12 0 76 -19.5t191 -44.5q0 143 -11 234q-317 49 -317 239q0 172 250 236q-2 10 -10 43q-14 55 -15 82q0 61 62 61q49 0 61 -61q4 -20 11.5 -53t11.5 -54q197 33 325 33q66 0 66 -61.5t-66 -61.5q-115 0 -299 -31q20 -82 39 -270q170 -41 276.5 -116.5 t106.5 -217.5q0 -82 -51 -133t-133 -51q-31 0 -185 31v-93q0 -61 -61 -61t-61 61v117q-123 25 -267 68q-61 18 -61 61zM205 778q0 -90 184 -114q-23 186 -33 229q-151 -33 -151 -115zM526 510q6 -77 6 -231q164 -33 185 -33q61 0 61 68.5t-61.5 114.5t-190.5 81z" />
<glyph unicode="%" horiz-adv-x="1802" d="M94 881q0 174 213 258q20 8 41 8q61 0 62 -62q0 -37 -63.5 -62.5t-96.5 -61t-33 -80.5q0 -82 70 -82q137 0 211.5 32.5t74.5 69.5q0 16 -47 41q-6 4 -17 10.5t-17 8.5q-61 31 -62 63q0 61 62 61q25 0 81 -27.5t89.5 -63.5t33.5 -93q0 -113 -135 -174q-109 -51 -274 -51 q-82 0 -137.5 55t-55.5 150zM471 61q0 23 29 70l368 614q92 154 252 394q41 61 68 61q61 0 61 -61q0 -25 -30 -70q-139 -209 -250 -393l-369 -615q-37 -61 -68 -61q-61 0 -61 61zM1229 328q0 82 61.5 143t151.5 61t184 -78.5t94 -172t-82 -157t-175 -63.5t-158.5 61.5 t-65.5 143.5q-10 27 -10 62zM1352 323.5q0 -36.5 10 -57.5q0 -33 28.5 -57.5t71.5 -24.5t89 28t46 71t-57 85t-98 42t-65.5 -25t-24.5 -61.5z" />
<glyph unicode="&#x26;" d="M82 168q0 131 176 264q-115 190 -115 309q0 123 41 230q87 229 230 229q201 0 200 -442q0 -188 -186 -352q78 -119 143 -189q47 31 110.5 122t94.5 152.5t64 61.5q61 0 61 -61q0 -53 -95 -184.5t-151 -174.5q59 -59 142.5 -114.5t83.5 -79.5q0 -61 -62 -62q-29 0 -71 29 q-123 82 -197 155q-35 -25 -51 -32q-55 -29 -162 -29t-181.5 45t-74.5 123zM205 168q0 -18 44 -31.5t98 -13.5t120 27q-88 104 -137 182q-125 -94 -125 -164zM266 749.5q0 -92.5 90 -241.5q68 59 102 115.5t34 134.5q0 319 -78 319q-63 0 -113 -141q-35 -94 -35 -186.5z" />
<glyph unicode="'" horiz-adv-x="532" d="M123 918q0 14 8 30q115 215 115 400q0 61 61.5 61t61.5 -61q0 -203 -115 -430q-31 -61 -70 -62q-61 0 -61 62z" />
<glyph unicode="(" d="M164 303q0 483 280 1045q31 61 68 61q61 0 61 -61q0 -18 -8 -35q-279 -557 -278 -1010q0 -229 70.5 -419.5t205.5 -395.5q31 -45 31 -66q-1 -61 -62 -61q-31 0 -71 61q-141 211 -219 421t-78 460z" />
<glyph unicode=")" d="M287 1348q0 61 61 61q18 0 60 -20q184 -92 297.5 -372t113.5 -648q0 -207 -34.5 -471.5t-84.5 -462.5q-18 -74 -65 -74q-61 0 -62 61q0 18 9 52q115 479 114 895q0 317 -93 575t-255 338q-61 31 -61 66z" />
<glyph unicode="*" d="M184.5 368.5q-0.5 61.5 61.5 61.5h170q-68 96 -68 143q0 61 62 62q33 0 63.5 -61.5t77.5 -118.5l98 98q57 57 88 57q61 0 62 -61q0 -20 -31 -51l-68 -68h37q61 0 61.5 -61.5t-61.5 -61.5h-61q37 -25 49 -37t12 -32q0 -61 -61 -62q-23 0 -69 31t-72 57l-80 -80 q-61 -61 -86 -61q-61 0 -62 61q0 27 62 88l34 35h-157q-61 0 -61.5 61.5z" />
<glyph unicode="+" d="M205 389.5q0 61.5 61 61.5q80 0 191 16q-6 90 -6 209q0 61 61 61t61 -61q0 -106 7 -191l137 27q61 0 61 -61q0 -45 -61 -62q-27 -9 -129 -27l26 -174q0 -61 -61 -61q-45 0 -61 61q-14 47 -25 156q-111 -16 -201 -16q-61 0 -61 61.5z" />
<glyph unicode="," horiz-adv-x="532" d="M205 -430q0 14 8 31q115 215 115 399q0 61 61.5 61t61.5 -61q0 -203 -115 -430q-31 -61 -70 -62q-61 0 -61 62z" />
<glyph unicode="-" d="M164 346q0 43 61 64q123 41 328 41q61 0 246 -21q61 -8 61 -61q0 -61 -61 -62q-4 0 -96.5 10.5t-149.5 10.5q-184 0 -285 -35q-18 -6 -43 -6q-61 0 -61 59z" />
<glyph unicode="." horiz-adv-x="737" d="M246 94q0 62 61 62q33 0 68 -29t35 -61.5t-28 -49t-60.5 -16.5t-54 29.5t-21.5 64.5z" />
<glyph unicode="/" horiz-adv-x="655" d="M82 -205q0 72 86 328q295 883 362 1225q12 61 66 61q59 0 59 -61q0 -8 -4 -29q-66 -332 -366 -1233q-68 -201 -80 -291q-9 -61 -62 -61q-61 0 -61 61z" />
<glyph unicode="0" d="M66 473q0 123 75.5 239.5t174 182.5t173.5 66q0 23 23 30q57 20 159.5 20.5t174.5 -99t72 -216.5q0 -221 -163 -366.5t-395 -145.5q-123 0 -208.5 83t-85.5 206zM188 485q0 -84 49.5 -131t122.5 -47q182 0 308.5 108.5t126.5 280.5q0 66 -37 129.5t-90 63.5 q-78 0 -107 -12q0 -18 -15.5 -27.5t-29.5 -9.5q-68 0 -139.5 -47.5t-130 -135.5t-58.5 -172z" />
<glyph unicode="1" d="M82 139q0 16 17.5 35t72.5 59q141 106 282.5 277.5t228.5 343.5t87 285q0 61 61 61q43 0 62 -59q8 -25 8 -101l-37 -694q0 -125 27 -258q2 -10 2 -27q0 -61 -62 -61q-49 0 -61 61q-29 143 -29 264t21 418q-213 -375 -516 -604q-76 -57 -103 -57q-61 0 -61 57z" />
<glyph unicode="2" d="M225 246q0 213 187 491q141 213 141 254q0 86 -61 86q-33 0 -68 -22t-35 -51l8 -41q0 -61 -61 -62q-33 0 -51.5 33t-18.5 70q0 80 70 138t151.5 58t135 -52t53.5 -157q0 -70 -78 -192q-25 -37 -80 -123q-170 -262 -170 -430q0 -55 92 -89t256 -34q61 0 61.5 -61.5 t-61.5 -61.5q-178 0 -303 47q-168 63 -168 199z" />
<glyph unicode="3" d="M164 61q0 55 61 62q147 16 262 49q209 63 209 156q0 37 -100 118q-53 43 -80 68t-56.5 71t-29.5 98t34 99t65.5 75t44 38t16.5 14t14 13.5t14.5 14.5t12.5 13t12 13l6 12q6 10 6 29q0 74 -131 73.5t-233 -41.5q-31 -12 -45 -12q-61 0 -62 61q0 41 62 66q123 49 251 49 t204.5 -50t76.5 -146q0 -43 -24.5 -87.5t-48 -67t-66.5 -61.5q-86 -74 -86 -112q0 -41 70 -92q33 -25 51 -43q145 -119 145 -213q0 -182 -295 -273q-133 -41 -272 -53q-16 -2 -27 -2q-61 0 -61 61z" />
<glyph unicode="4" d="M164 709q0 193 119 430q31 61 65 61q61 0 62 -61q0 -14 -17 -47q-106 -213 -106 -379q0 -86 52 -153.5t125 -67.5t109 20q41 20 70 41q59 41 94 41q61 0 62 -62q0 -12 -20.5 -116.5t-20.5 -251.5q0 -20 30.5 -49t30.5 -54q0 -61 -61 -61q-41 0 -82 50t-41 114 q0 152 20 254q-68 -49 -189.5 -49t-211.5 103t-90 237z" />
<glyph unicode="5" d="M82 162q0 61 61 61q20 0 66 -30q100 -70 180 -70q225 0 225 131q0 51 -31.5 116.5t-63.5 107.5t-79 97q-219 258 -219 367q0 70 22.5 137.5t63.5 67.5q62 -1 62 -62q0 -14 -12.5 -51t-12.5 -73.5t9 -59t29.5 -52.5t35 -49.5t39 -50t28.5 -35.5t41 -49t67 -84t66 -98 q78 -121 78 -223t-85 -181t-263 -79q-121 0 -246 86q-61 43 -61 76zM410 1024q0 41 61 72q135 68 342 102q13 2 27 2q61 0 61 -61q0 -51 -61 -62q-197 -33 -328 -98q-33 -16 -41 -16q-61 0 -61 61z" />
<glyph unicode="6" d="M82 246q0 276 213 518q186 211 479 412q33 25 66 24q61 0 61 -61q0 -25 -84 -83.5t-158.5 -116.5t-167 -144t-149.5 -166q-137 -190 -137 -383q0 -45 39 -84t84 -39q121 0 234.5 70.5t113.5 175.5q0 49 -43 75.5t-88 26.5q-59 0 -107 -49q-29 -33 -49 -33q-61 1 -61 62 q0 45 64.5 94t156.5 49t171 -62.5t79 -162.5q0 -156 -148.5 -262.5t-322.5 -106.5q-94 0 -170 76t-76 170z" />
<glyph unicode="7" d="M82 1004q0 86 92 141t195 55q182 0 272 -123q76 -102 76 -278q0 -94 -33 -258q104 12 156 12q61 0 61 -61.5t-61.5 -61.5t-184.5 -16q-94 -328 -102 -353q-20 -61 -61 -61q-61 0 -62 61q0 18 4 30.5t88 301.5l-256 -45q-61 0 -61 62q0 49 61 61q141 29 287 51 q41 178 41 293q0 262 -225 262q-39 0 -101.5 -23.5t-62.5 -49.5q0 -20 30.5 -49t30.5 -55t-16.5 -43t-49 -17t-75.5 55t-43 109z" />
<glyph unicode="8" d="M184 246q0 139 168 344q-127 164 -147.5 212t-20.5 79q0 61 61.5 61t61.5 -59q0 -41 127 -199q20 23 52 55.5t50.5 53t44 48t40 46t28.5 39.5q27 37 27 68.5t-37 57t-87 25.5t-117.5 -45t-86.5 -45q-61 0 -61 62q0 39 93 95t184 56t163 -60.5t72 -156.5 q0 -66 -50.5 -130.5t-76 -93t-83 -89t-79.5 -84.5q207 -264 207 -402q0 -82 -51.5 -133t-133.5 -51q-348 0 -348 246zM307 257q0 -85 60.5 -109.5t164.5 -24.5q61 0 62 61q0 95 -166 308q-121 -150 -121 -235z" />
<glyph unicode="9" d="M164 854q0 125 89 235.5t218 110.5q59 0 111.5 -38t52.5 -77q0 -61 -62 -61q-20 0 -48.5 26.5t-53.5 26.5q-80 0 -132 -74.5t-52 -162.5q0 -123 123 -123q141 0 221 59q45 33 45 72t-10.5 70t-10.5 45q0 61 62 61q43 0 61 -57q41 -125 41 -306.5t-49 -295t-209 -304.5 q-51 -61 -78 -61q-61 0 -61 61q0 25 45 78q152 182 190.5 274.5t38.5 262.5q-111 -82 -286 -82q-111 0 -178.5 67.5t-67.5 192.5z" />
<glyph unicode=":" horiz-adv-x="737" d="M201 549q0 61 61 61q33 0 68 -28q35 -29 35 -62t-28 -49t-60.5 -16t-54 29.5t-21.5 64.5zM246 94q0 62 61 62q33 0 68 -29t35 -61.5t-28 -49t-60.5 -16.5t-54 29.5t-21.5 64.5z" />
<glyph unicode=";" horiz-adv-x="737" d="M246 -430q0 14 8 31q115 215 115 399q0 61 61.5 61t61.5 -61q0 -203 -115 -430q-31 -61 -70 -62q-61 0 -61 62zM283 549q0 61 61 61q33 0 68 -28q35 -29 34.5 -62t-28 -49t-60 -16t-54 29.5t-21.5 64.5z" />
<glyph unicode="&#x3c;" d="M123 487.5q0 73.5 57 128.5l527 537q47 47 71 47q61 0 62 -61q0 -27 -41 -68l-529 -539q-25 -25 -24.5 -57.5t41.5 -44.5q123 -41 193.5 -67.5t163.5 -81t163 -123.5q33 -31 33 -56q0 -61 -62 -61q-31 0 -55 25q-66 66 -151 114.5t-144 70t-195 66.5q-47 14 -78.5 55.5 t-31.5 115z" />
<glyph unicode="=" d="M143 598q0 49 58 61q6 2 60 15.5t108 25.5q145 37 266 37h164q61 0 61 -61.5t-61 -61.5h-152q-111 0 -201 -22q-98 -25 -196 -49q-43 -6 -45 -6q-61 0 -62 61zM184 328q1 53 62 61q18 4 249.5 28.5t261 29t42.5 4.5q61 0 61 -62q0 -51 -61 -61q-53 -10 -301 -36 t-262.5 -26t-33 16.5t-18.5 45.5z" />
<glyph unicode="&#x3e;" d="M82 1139q0 61 57 61q19 0 58 -14q451 -166 618 -289q86 -61 86 -152.5t-67 -148.5q-260 -223 -494 -535q-45 -61 -74 -61q-61 0 -61 61q0 27 39 78q229 307 493 533q41 35 41 65.5t-41 61.5q-158 111 -594 274q-61 23 -61 66z" />
<glyph unicode="?" horiz-adv-x="696" d="M94 1190q0 84 68.5 151.5t177.5 67.5t185.5 -66.5t76.5 -220t-129 -413.5q-31 -61 -50.5 -100.5t-31.5 -67.5q-20 -47 -20 -99q0 -61 -61.5 -61t-61.5 61q0 102 115.5 323.5t115.5 377.5q0 143 -151 143q-45 0 -78 -31.5t-33 -74.5q0 -18 37 -80t37 -80q0 -61 -62 -62 q-33 0 -63 52q-72 96 -72 180zM246 94q0 62 61 62q33 0 68 -30t35 -61.5t-28 -48t-60.5 -16.5t-54 29.5t-21.5 64.5z" />
<glyph unicode="@" horiz-adv-x="1187" d="M74 184q0 412 197.5 616t543.5 204q119 0 209 -95q90 -94 90 -241.5t-105.5 -307t-242.5 -159.5q-84 0 -113 45q-27 -37 -42 -55.5t-55 -43t-97.5 -24.5t-104.5 45q-47 49 -47 151.5t59.5 190.5t137.5 88q100 0 162 -123q39 80 75 201q18 61 62 61q61 0 61 -61 q0 -16 -6 -39q-35 -129 -86 -223q-8 -14 -45 -66q12 -25 39 -24q72 0 148.5 120.5t76.5 223t-55 158t-121 55.5q-618 0 -618 -697q0 -145 40 -213.5t169 -68.5q211 0 528 196q12 8 24.5 16.5t45.5 8.5q61 0 61 -62q0 -31 -53 -61q-94 -57 -151.5 -90t-198 -82t-256.5 -49 q-186 0 -259 105.5t-73 299.5zM430 305.5q0 -59.5 41 -59.5q29 0 117 116q-18 37 -29 60q-22 53 -55 53q-23 0 -48.5 -55t-25.5 -114.5z" />
<glyph unicode="A" d="M82 61l4 25q27 106 61 252q37 145 54 215q49 193 139 469q59 178 188 178q102 0 144 -123q37 -109 96 -532q63 8 72 8q61 0 61 -61q0 -25 -18.5 -41.5t-42.5 -20.5l-54 -6q21 -174 21 -256q0 -83 -43 -125q-43 -43 -99.5 -43t-106.5 47t-79 109q-61 133 -61 198 q0 125 227 172q-63 434 -82.5 492.5t-34.5 58.5q-41 0 -71 -92q-94 -283 -125 -405.5t-66 -268t-52 -214t-30.5 -83t-40.5 -14.5q-61 0 -61 61zM541 344q0 -37 48 -129t75 -92q20 0 20 68.5t-20 211.5q-123 -27 -123 -59z" />
<glyph unicode="B" d="M82 672q0 119 57 307q29 94 85.5 157.5t134 63.5t117.5 -51t40 -134t-32.5 -209t-32.5 -134q0 -66 225 -86q84 -8 154.5 -55.5t70.5 -137.5q0 -125 -128 -259t-322 -134q-94 0 -172 53t-78 90q0 61 61 62q14 0 73 -41t116 -41q141 0 234 98t93 172q0 66 -225 86 q-84 8 -154.5 55.5t-70.5 137.5q0 31 32.5 158.5t32.5 166.5t-1 49.5t-11 20.5t-29 10q-45 0 -96 -149.5t-51 -256t53 -319.5q4 -12 4 -24q0 -61 -61 -62q-49 0 -66 62q-53 213 -53 344z" />
<glyph unicode="C" d="M82 442.5q0 151.5 65.5 301t164 246.5t207 153.5t186 56.5t137 -32.5t59.5 -69.5q0 -61 -61 -62q-18 0 -54 20.5t-84.5 20.5t-134.5 -47t-168 -127t-138 -207t-56 -259t66.5 -223t220.5 -91h122q182 0 324 47q43 14 49 14q61 0 62 -61q0 -45 -62 -66q-172 -57 -373 -57 h-122q-115 0 -200 44t-128 114q-82 133 -82 284.5z" />
<glyph unicode="D" d="M82 635q0 217 41 364q16 51 61 103q88 98 287 98q160 0 295 -119.5t135 -257.5q0 -219 -151 -379q-111 -115 -266.5 -229.5t-188.5 -142.5q-33 -31 -45 -43l-19 -19q-24 -24 -56 -24h-3q-61 0 -61 63q0 41 260 238q131 98 205.5 160.5t138 163t63.5 199.5t-102.5 183 t-193.5 84t-136 -16q-88 -31 -108 -111q-33 -125 -33 -329.5t24 -303.5q4 -25 4 -30q0 -62 -61 -62q-31 0 -43 13q-47 51 -47 397z" />
<glyph unicode="E" d="M82 328q0 90 139 180q12 8 38 24.5t85 57.5t66 65q0 18 -42 52t-91.5 69t-91.5 91.5t-42 119t57.5 108.5t180.5 75.5t189.5 29.5t106.5 -21t40 -53q-1 -61 -62 -61l-61 12q-74 0 -201 -31.5t-127 -62.5q0 -61 133 -143q49 -29 91 -79t42 -99.5t-27.5 -88t-53 -58 t-60.5 -42t-42 -28t-23 -15.5l-25 -16q-8 -4 -21.5 -13.5t-21.5 -14.5t-17.5 -13t-15.5 -13q-8 -6 -12 -12q-8 -10 -8 -20q0 -68 99 -136.5t228 -68.5q264 0 406 47q43 14 49 14q61 0 62 -61q0 -45 -62 -66q-172 -57 -455 -57q-178 0 -314 103.5t-136 224.5z" />
<glyph unicode="F" d="M82 860q0 98 61.5 169t163.5 106q192 65 423 65h7q127 0 186.5 -29.5t59.5 -64.5q0 -61 -61 -62q-20 0 -53 16.5t-132.5 16.5t-173.5 -6t-166 -27q-193 -41 -192 -184q0 -162 29 -341t90 -294l-17 594q-1 61 61 61l1 1q61 0 61 -69t2 -122q43 -14 110.5 -14t137.5 10 t78 10q61 0 61 -61q0 -25 -18.5 -41t-42.5 -21q-156 -20 -213.5 -20t-108.5 10q16 -498 17 -502q0 -61 -64 -61q-35 0 -96 61q-102 102 -156.5 336t-54.5 463z" />
<glyph unicode="G" d="M82 432.5q0 192.5 58.5 340t149.5 237.5t193.5 140t191.5 50t157.5 -52t68.5 -141t-22 -135q-39 -77 -79 -77h-1q-25 0 -43.5 16t-18.5 45l17 41q25 48 25 92q0 47 -29 67q-29 21 -73 21t-104.5 -21.5t-126 -71.5t-119 -119.5t-88 -178t-34.5 -246t83 -227.5t204.5 -90 t121.5 123q0 57 -102 86q-39 12 -70.5 47t-31.5 81t13 61.5t48 27.5q84 25 178 25h3q96 -1 156 -7t76.5 -23.5t16.5 -41.5q0 -61 -61 -62q-4 0 -50 6q-43 5 -98 5q-4 0 -10 -1q-60 0 -117 -8q2 -2 26.5 -12t34 -15t31 -18.5t31.5 -25.5q12 -12 25 -31q25 -35 24 -94 q0 -111 -67.5 -178.5t-177.5 -67.5q-160 0 -285 120t-125 312.5z" />
<glyph unicode="H" d="M82 360q0 90 66.5 137.5t127.5 47.5q-51 449 -51 594q0 61 61.5 61t61.5 -65q0 -66 8 -168q8 -121 33 -332l12 -90q131 0 211 32.5t80 77.5l-53 422q-1 61 57 61l1 1q57 0 65 -62q47 -330 56 -406.5t32 -187.5q51 -250 51 -360q1 -61 -61 -61l-1 -1q-61 0 -61 62 q0 94 -15 169t-26.5 132t-15.5 74q-98 -76 -309 -76q18 -162 18 -238q0 -184 -164 -184q-100 0 -143 123q-41 111 -41 237zM205 348q0 -41 17.5 -133t45 -92t33.5 12t6 49l-20 238q-33 0 -57.5 -16.5t-24.5 -57.5z" />
<glyph unicode="I" horiz-adv-x="1146" d="M82 1044q0 42 61 62q8 2 46 15.5t46.5 15.5t42 12t45 13t41 10.5t46 10.5t45 7t51.5 6q45 4 112 4q154 0 304 -90q61 -37 61 -67.5t-13.5 -45t-43 -14.5t-49.5 12q-137 82 -254 82t-206 -20.5t-227 -65.5q-33 -8 -47 -8q-61 0 -61 61zM225 209q0 61 62 61q27 0 44 -21.5 t17 -29.5q18 -37 80 -69q-18 221 -18 464v246q0 62 61 62h1q60 0 60 -62v-246q0 -219 17 -421l4 -68l65 -2q150 0 343 139q16 12 43 12q61 0 61 -61q0 -23 -49 -59q-207 -154 -382 -154t-263 41t-135 127q-10 20 -11 41z" />
<glyph unicode="J" d="M82 233q0 61 61 62q25 0 61 -17.5t72.5 -35t50 -23.5t47.5 -20.5t50 -20.5t46 -17t50 -18q20 -4 45 -10q43 -10 91.5 -10t85 28.5t36.5 71.5t-30.5 299t-30.5 379t41 238q4 18 21.5 39.5t39.5 21.5q61 0 62 -61q0 -10 -9 -35q-33 -97 -33 -205q0 -109 31 -371 q31 -258 31 -303q0 -94 -73.5 -159.5t-172.5 -65.5q-94 0 -162.5 24.5t-90 31.5t-64.5 25.5t-56.5 25t-58.5 27t-64.5 29.5t-35.5 17q-41 20 -41 53z" />
<glyph unicode="K" d="M82 246q0 164 20.5 446.5t20.5 446.5q0 61 61.5 61t61.5 -61q0 -233 -11.5 -355t-11.5 -131q336 371 617 371q61 0 61 -61.5t-61 -61.5q-147 0 -318 -137q51 -121 79 -256t34 -209q14 -174 127 -176q35 0 127 30.5t98 30.5q61 0 62 -61q-1 -46 -62 -66 q-172 -57 -243.5 -57t-126 41t-78 116.5t-35.5 157.5q-37 260 -80 369q-145 -143 -182 -218t-37 -220q1 -62 -61 -62h-1q-61 0 -61 62z" />
<glyph unicode="L" horiz-adv-x="819" d="M82 225q0 88 24.5 401.5t24.5 397.5l-8 113q0 63 61 63q55 0 62 -61q8 -49 8 -127t-24.5 -388.5t-24.5 -385t21.5 -95t68.5 -20.5q338 0 479 47q43 14 49 14q61 0 62 -61q0 -45 -62 -66q-172 -57 -528 -57q-213 0 -213 225z" />
<glyph unicode="M" horiz-adv-x="1269" d="M82 59q0 197 15.5 564.5t37.5 453.5q33 123 129 123t142 -123q25 -66 77 -284t99 -382.5t72.5 -164.5t41.5 155q70 557 90 615q18 57 48 90t88 33q98 0 141 -123q16 -41 32.5 -260t41 -405.5t63.5 -186.5l74 20q61 0 61 -61q0 -45 -55 -63.5t-80 -18.5q-98 0 -149 123 q-29 68 -48.5 285t-37 392t-43.5 175q-25 0 -62 -285q-8 -68 -13 -116t-14.5 -120.5t-13.5 -105.5q-16 -137 -51 -201.5t-113 -64.5q-98 0 -149 123q-31 68 -83 279.5t-96 381.5t-61 170q-27 0 -44 -400.5t-17 -617.5q0 -59 -62 -59q-33 0 -47 19.5t-14 39.5z" />
<glyph unicode="N" horiz-adv-x="1024" d="M82 247.5q0 104.5 23.5 376t33.5 318.5q35 184 168 184q72 0 120 -49t65 -135q2 -10 13 -96t26.5 -184.5t34 -200t43 -169t46.5 -67.5q41 0 79 186.5t44 325.5q12 350 40 406.5t63 56.5q61 0 61 -61q0 -16 -14.5 -45t-26.5 -361q-4 -100 -29 -250q-25 -152 -53 -233 q-53 -148 -159 -148q-105 0 -156 123q-66 158 -111 541q-16 145 -20 152q-16 86 -66 86q-31 0 -44 -65t-35.5 -326t-22.5 -361t10 -141t9 -50q0 -61 -60 -61q-45 0 -63.5 71.5t-18.5 176z" />
<glyph unicode="O" horiz-adv-x="1146" d="M82 461.5q0 195.5 75.5 315.5t180.5 141q21 4 31 4q61 0 61 -62q0 -49 -61 -61q-84 -16 -124 -117.5t-40 -234t96 -228.5t241.5 -96t272.5 128t127 281q0 180 -55 349q-29 86 -84 141t-141.5 55t-139.5 -30.5t-71 -30.5q-61 0 -62 61q0 33 62 70q33 20 100 36.5t125 16.5 q104 0 184 -61q78 -61 121 -164q84 -199 84 -443q0 -205 -164 -368.5t-358.5 -163.5t-327.5 133t-133 328.5z" />
<glyph unicode="P" d="M82 922q0 119 124 198.5t380 79.5q315 0 315 -278q0 -88 -70 -168q-37 -41 -165 -103q-72 -33 -183.5 -57.5t-113.5 -24.5q-61 0 -62 62q0 45 61.5 60t87 21.5t87 24t92.5 33.5t70 39q74 43 74 121q0 80 -39 114q-38 34 -150.5 33.5t-192.5 -16.5t-118 -41 q-74 -49 -74 -100q0 -135 56 -401.5t82 -353.5t26 -104q0 -61 -62 -61q-29 0 -41 14.5t-40.5 121t-86 374t-57.5 412.5z" />
<glyph unicode="Q" horiz-adv-x="1351" d="M82 614q0 252 144.5 388.5t379.5 136.5q100 61 213 61q213 0 332 -135t119 -334t-133 -379t-353 -301q-2 -53 84 -170q12 -16 13 -41q0 -61 -62 -61q-33 0 -61 45q-86 131 -94 192q-59 -16 -146 -16q-184 0 -310 153.5t-126 460.5zM205 614q0 -215 76.5 -353t236.5 -138 q86 0 144 24q-2 160 -84 261q-39 45 -60.5 61t-35 26.5t-15.5 10.5q-119 84 -119 231q0 115 121 264l-23 -8q-80 -29 -112.5 -58.5t-56 -60t-37.5 -65.5q-35 -84 -35 -195zM471 737q0 -37 20.5 -74.5t34 -48t29.5 -20.5t27 -19l30 -24q29 -23 59.5 -61.5t45 -67.5t28.5 -62 q29 -66 37 -167q137 74 251 225t114 316t-93 254t-235 89q0 -61 -61 -61h-103q-184 -168 -184 -279z" />
<glyph unicode="R" horiz-adv-x="1105" d="M82 532q0 160 63.5 309.5t198.5 254t308 104.5t272.5 -81t99.5 -238q0 -348 -451 -349q252 -158 390 -315q61 -74 61 -94q0 -61 -61 -62q-25 0 -41.5 16.5t-40.5 45.5q-86 100 -183.5 176t-328.5 217q-61 39 -62 78q0 61 62 61h204q170 0 249 49.5t79 163t-58.5 161.5 t-177 48t-206.5 -49q-90 -51 -144 -133q-111 -168 -110 -363q0 -254 45 -440q4 -12 4 -31q0 -61 -61 -61q-23 0 -39.5 21.5t-22.5 39.5q-49 197 -49 471z" />
<glyph unicode="S" d="M82 61.5q0 61.5 61 61.5q410 0 564 61q72 29 72 59q0 31 -51 56q-50 25 -168 63.5t-179 65.5q-299 125 -299 379q0 166 143.5 279.5t343.5 113.5q111 0 185.5 -65.5t74.5 -157.5t-71.5 -164t-98.5 -72q-61 0 -61 62q0 27 54.5 81t54.5 83q0 49 -38 79.5t-98 30.5 q-152 0 -259 -76.5t-107 -185t60.5 -170t137 -93.5t154.5 -57.5t130 -45t106 -48.5q109 -59 108 -155q0 -125 -179.5 -185.5t-578.5 -60.5q-61 0 -61 61.5z" />
<glyph unicode="T" d="M82 1138.5q0 61.5 61 61.5q317 0 779 -94q25 -4 43 -27.5t18 -54.5t-20.5 -56.5t-40.5 -25.5q-180 0 -295 -131t-115 -319v-431q0 -61 -61.5 -61t-61.5 61v431q0 182 92 327.5t236 204.5q-307 53 -574 53q-61 0 -61 61.5z" />
<glyph unicode="U" d="M82 597q0 228 41 439q6 29 24.5 45.5t36.5 16.5q61 0 62 -62l-6 -39q-35 -172 -35 -318.5t2 -202.5t13 -129t29.5 -119t55.5 -77.5t88 -31.5q113 0 203 119.5t136 289.5t46 310.5t-35 277.5l-2 23q0 29 17.5 45t38.5 16q51 0 67 -61q37 -152 37 -281t-32.5 -277.5 t-92 -280.5t-160 -216t-212 -84t-178 53t-95.5 154q-49 162 -49 390z" />
<glyph unicode="V" d="M82 1016q0 61 61 61q55 0 62 -61q16 -172 73.5 -419t82 -316.5t27.5 -78.5t5 -14.5t5 -14.5t5.5 -13t6.5 -11.5t8 -11.5q4 -2 8 -6q12 -8 25.5 -8t29.5 49q16 53 62 254q115 512 235 725q29 49 62 49q61 0 61 -61q0 -20 -12 -43q-123 -213 -234 -719q-45 -199 -61 -254 q-41 -123 -143 -123q-127 0 -185 178q-47 135 -106.5 392t-75.5 421q-2 12 -2 25z" />
<glyph unicode="W" horiz-adv-x="1474" d="M82 1008v8q0 61 61 61q55 0 62 -55q29 -254 115 -576.5t131 -322.5q20 0 41.5 143.5t43 322.5t35.5 230q37 123 136 123q59 0 88 -33q25 -31 36 -58.5t20 -46t54 -198.5q119 -483 160 -483q16 0 45 167t73 429t69.5 357t39 109.5t39.5 14.5q61 0 62 -61q0 -18 -4 -35 q-51 -180 -111.5 -567t-81 -430.5t-30 -58.5t-36 -31.5t-65.5 -16.5q-102 0 -152 123q-35 82 -78.5 261t-77.5 307t-50.5 128t-36 -144.5t-41 -321.5t-38 -220t-26.5 -62.5t-41.5 -45t-69.5 -25.5t-63.5 10t-46.5 35q-20 27 -58 100.5t-106.5 346t-93.5 491.5z" />
<glyph unicode="X" d="M82 1139q0 61 61 61q27 0 72 -67q14 -20 139 -197.5t138 -198.5l204 328q43 74 82 74q61 0 62 -60q0 -20 -33 -69l-238 -383q14 -20 152.5 -217t159 -230t20.5 -57q0 -61 -61 -62q-25 0 -66 62q-14 20 -139 195.5t-137 195.5q-215 -350 -252 -453q-23 -61 -62 -61 q-61 0 -61 61q0 33 10 56q80 178 287 508q-12 20 -154 223q-143 201 -163.5 233.5t-20.5 57.5z" />
<glyph unicode="Y" d="M82 1139q0 61 59 61q23 0 64 -49q8 -8 55 -69.5t77 -91t90 -61.5t121.5 -32t130.5 43t97 104q27 61 64 62q61 0 61 -62q0 -109 -67 -270l-289 -719q-23 -55 -64 -55q-61 0 -61 61q0 10 14 50l283 708q-78 -45 -143.5 -45t-108.5 10.5t-76 22.5t-68.5 38.5t-56 43 t-51.5 52.5t-40 48t-35.5 49t-31 41t-14.5 26.5t-10 33.5z" />
<glyph unicode="Z" horiz-adv-x="1064" d="M82 573.5q0 61.5 61 61.5h402q82 59 135 104t108.5 125t55.5 152q0 29 -37 45t-74 16q-223 0 -534 -96q-53 -14 -56 -14q-61 0 -61 61q0 47 61 66q358 106 590 106q90 0 162 -49t72 -135q0 -199 -219 -381h215q61 0 61 -61.5t-61 -61.5h-377q-211 -152 -265.5 -205 t-54.5 -102q0 -82 352 -82q260 0 402 47q43 14 49 14q61 0 61 -61q0 -45 -61 -66q-172 -57 -480.5 -57t-400.5 92q-45 45 -45 113q0 145 232 307h-232q-61 0 -61 61.5z" />
<glyph unicode="[" d="M82 5q0 128 20.5 331t20.5 357.5t-20.5 325.5t-20.5 181q0 61 37 106.5t90 65.5q98 37 170 37t145.5 -59.5t73.5 -87.5q0 -61 -61 -62q-20 0 -78 43t-78 43q-59 0 -117.5 -22.5t-58.5 -63.5q0 -102 20.5 -240.5t20.5 -244t-20.5 -351t-20.5 -364.5q0 -63 89 -93 t191.5 -30t288.5 53q29 8 41 9q61 0 62 -62q0 -41 -62 -61q-188 -61 -342 -61.5t-272.5 61t-118.5 189.5z" />
<glyph unicode="\" horiz-adv-x="655" d="M82 1139q0 61 61 61q49 0 65.5 -71.5t43.5 -170t59.5 -193.5t66.5 -186.5t66.5 -174t57 -142t44 -105.5t23.5 -58.5t4 -37.5q0 -61 -61 -61q-37 0 -61 61q-297 743 -365 1049q-4 25 -4 29z" />
<glyph unicode="]" d="M205 -122.5q0 61.5 68.5 61.5t219 -31t224.5 -31q29 0 45 37t16 100.5t-65.5 193.5t-65.5 255t41 339t41 337q0 70 -45 108.5t-170 38.5q-186 0 -186 -106q0 -61 -61.5 -61.5t-61.5 61.5q0 66 45 135q29 41 96.5 67.5t168.5 26.5t173 -25q74 -25 107 -69 q57 -76 57 -192.5t-41 -327.5t-41 -353q0 -78 65.5 -208t65.5 -234t-50 -175t-130 -71t-230.5 31t-218 31t-67.5 61.5z" />
<glyph unicode="^" horiz-adv-x="819" d="M82 1044q0 31 61 89q18 18 56.5 55t52.5 52t44 43t43 39t37.5 29.5t40 25.5t36.5 16q35 16 71.5 16t62 -11.5t43 -27.5t33 -43t24.5 -48.5t18.5 -54t13.5 -48.5q14 -57 14 -74q4 -14 4 -25q0 -61 -59 -61q-51 0 -64 61q-41 209 -83 209t-97 -45t-132 -123t-85 -86 t-12 -11t-10 -9q-18 -18 -24.5 -20.5t-10.5 -4.5q-8 -4 -17 -4q-61 0 -61 61z" />
<glyph unicode="_" d="M-61 61.5q0 61.5 61 61.5q43 0 210 -8.5t282 -8.5l491 17q61 0 61 -61.5t-61 -61.5l-491 -16q-115 0 -282 8t-210 8q-61 0 -61 61.5z" />
<glyph unicode="`" horiz-adv-x="573" d="M82 1346q0 63 61 63q25 0 82.5 -49t134 -135t117.5 -168q14 -27 15 -49q0 -61 -62 -62q-35 0 -65 62q-72 141 -222 262q-61 49 -61 76z" />
<glyph unicode="a" d="M82 246q0 199 164 345t332 146q92 0 158.5 -33.5t66.5 -68.5q0 -61 -62 -62q-12 0 -59 20.5t-104 20.5q-111 0 -242 -107.5t-131 -260.5q0 -31 25.5 -56.5t56.5 -25.5q121 0 225 64.5t133 106.5t47.5 76.5t27.5 46t40 11.5t47 -22.5t30.5 -70.5t29 -107.5t26 -80 t29.5 -20.5l65 16q61 0 62 -61q0 -45 -62 -66q-37 -12 -72.5 -12t-68.5 16.5t-51 49.5q-31 53 -45 114l-9 35q-35 -59 -169 -139t-285 -80q-82 0 -143.5 61.5t-61.5 143.5z" />
<glyph unicode="b" d="M82 500q0 25 26.5 58.5t41 52t26.5 34.5q18 25 74 92q-86 121 -86 287q0 113 33 195q33 84 82 120q94 70 179 70t141 -58.5t56 -161t-58 -204.5t-189 -248q96 -129 317 -274q70 -47 123 -120t53 -159t-76.5 -135t-194.5 -49t-241 61q-61 29 -61 62q0 61 61 61 q18 0 53 -16t101.5 -30.5t108.5 -14.5t84 16.5t42 44.5q0 55 -49 109.5t-113.5 95.5t-149.5 109.5t-138 138.5q-133 -170 -149.5 -184.5t-35.5 -14.5q-61 0 -61 62zM287 1032q0 -129 45 -192q200 219 200 360q0 86 -81 86q-55 0 -109.5 -62.5t-54.5 -191.5z" />
<glyph unicode="c" horiz-adv-x="860" d="M82 287q0 182 118.5 316t270.5 134q86 0 155.5 -34.5t69.5 -67.5q0 -61 -61 -62q-27 0 -68 20.5t-96 20.5q-111 0 -188.5 -103t-77.5 -205.5t48 -142.5t157 -40h122q141 0 283 47q43 14 49 14q61 0 62 -61q0 -45 -62 -66q-172 -57 -332 -57h-122q-172 0 -250 81t-78 206z " />
<glyph unicode="d" d="M82 184q0 219 140 353.5t294 134.5q29 0 90.5 -10.5t83.5 -22.5q-41 68 -184.5 236.5t-181 220t-37.5 104.5t35.5 92t90 53.5t126 26.5t125.5 19q139 16 148 17t28 1q61 0 61 -61q0 -16 -16.5 -37t-32.5 -23t-70.5 -9t-112 -14.5t-118.5 -17.5q-141 -25 -141 -47 q0 -16 73.5 -105t173 -208t143.5 -189.5t44 -157.5t-62.5 -194.5t-151.5 -180.5t-183.5 -119t-173 -46t-135 51t-56.5 133zM205 184q0 -29 24.5 -45t65.5 -16t124 43t173 134t123 200q-33 16 -98.5 32.5t-100.5 16.5q-100 0 -205.5 -97.5t-105.5 -267.5z" />
<glyph unicode="e" horiz-adv-x="819" d="M-66 123q0 39 62 63q10 4 49 24.5t45 25.5q-8 18 -8 55q0 184 129 315t235.5 131t168 -50t61.5 -120.5t-33 -122t-102 -100.5q-96 -70 -281 -162q82 -59 227.5 -59t286.5 47q43 14 49 14q61 0 62 -61q0 -45 -62 -66q-172 -57 -331 -57q-228 0 -357 119q-2 0 -31 -17 q-74 -41 -108 -41q-61 0 -62 62zM205 291q348 174 348 262q0 61 -102 61q-61 0 -153.5 -97t-92.5 -226z" />
<glyph unicode="f" horiz-adv-x="819" d="M82 -369q0 86 19.5 122t27.5 55.5t34.5 44t36 36t46.5 34t41 26.5q6 2 49 26l43 25q-154 399 -154 922q0 150 60 303q31 80 90 132t127.5 52t115.5 -37q45 -35 70 -90q49 -113 49 -203t-22.5 -159.5t-55.5 -106.5q-66 -76 -106 -76q-61 0 -61 62q0 18 19 37.5t41.5 40 t42 72.5t19.5 120t-31.5 142.5t-70.5 74.5q-70 0 -117 -119.5t-47 -244.5q0 -500 141 -867q119 59 223.5 94t110.5 35q61 0 62 -61q0 -45 -62 -66q-160 -53 -291 -118q41 -115 41 -238t-79.5 -231.5t-186 -108.5t-166 73.5t-59.5 196.5zM205 -369q0 -147 96 -147 q59 0 104.5 75.5t45.5 155.5t-29 166l-33 -16q-29 -14 -41 -22.5t-39.5 -25t-41 -33.5t-29.5 -40q-33 -41 -33 -113z" />
<glyph unicode="g" horiz-adv-x="819" d="M184 653q60 84 152 84t161.5 -55t92.5 -158q4 -16 4 -32q0 -61 -62 -62q-45 0 -61 62q-29 122 -121 122h-2q-51 0 -76.5 -50t-25.5 -99t13 -88t45 -89t52 -79q55 -78 146 -186q135 100 272 147q43 14 49 14q61 0 62 -61q0 -45 -62 -66q-121 -39 -252 -135 q96 -150 97 -252v-1q0 -102 -82 -205t-178.5 -103t-160 65.5t-63.5 163.5q1 152 224 355q-12 16 -74 94t-83.5 109.5t-60.5 93.5q-68 105 -68 215q0 111 62 196zM307 -410q0 -49 26.5 -77.5t73 -28.5t92.5 67.5t46 128t-68 164.5q-170 -160 -170 -254z" />
<glyph unicode="h" horiz-adv-x="1105" d="M82 356q0 256 56.5 498t157.5 398.5t214 156.5t170 -82t57 -212t-72.5 -256t-177.5 -204q-51 -41 -77 -41q-61 0 -62 62q0 25 69.5 78t133 152.5t63.5 232.5q0 55 -24.5 101t-77.5 46q-61 0 -132 -128t-123 -349t-52 -453.5t61 -232.5q86 0 164 160q33 66 70 132t97 112 t140 46q184 0 185 -348q0 -61 60 -61t91 10t37 10q61 0 61 -61q0 -82 -188 -82q-88 0 -136 39t-48 135t-16.5 166t-45.5 70q-86 0 -164 -160q-33 -66 -69.5 -132.5t-97 -112.5t-140.5 -46q-184 0 -184 356z" />
<glyph unicode="i" horiz-adv-x="860" d="M-66 123q0 39 62 63q33 12 87 49t72.5 55.5t64.5 68t72.5 75t73 52t85.5 26.5q80 0 122.5 -57.5t51.5 -126.5q23 -184 71 -185q39 0 100.5 20.5t67.5 20.5q61 0 62 -61q0 -45 -62 -66q-111 -37 -179.5 -37t-111.5 57.5t-51 127.5q-23 184 -71 184q-27 0 -61 -33.5 t-54 -53t-47 -48.5q-115 -123 -234 -176q-37 -16 -59 -17q-61 0 -62 62zM412 954q0 62 61 62q33 0 67.5 -30t34.5 -61.5t-27.5 -48t-60 -16.5t-54 30t-21.5 64z" />
<glyph unicode="j" horiz-adv-x="819" d="M82 -328q0 176 274 328l-135 676q0 61 62 61q53 0 65 -69q49 -227 123 -611q137 61 241.5 94t110.5 33q61 0 62 -61q0 -45 -62 -66l-37 -12q-176 -59 -292 -115q47 -258 47 -350t-50.5 -155.5t-140.5 -63.5t-179 97.5t-89 213.5zM205 -328q0 -66 54 -127t90 -61 t52.5 29.5t16.5 72.5t-41 285q-172 -106 -172 -199zM328 1130q0 62 61 62q33 0 68 -29.5t35 -61.5t-28 -48.5t-60.5 -16.5t-54 30t-21.5 64z" />
<glyph unicode="k" horiz-adv-x="819" d="M82 552.5q0 106.5 1 191.5t2 135.5t7 124t6 96.5q4 96 25 250q6 59 61 59q62 0 62 -61l-2 -35q-25 -246 -32 -365t-7 -285.5t10 -218.5q49 109 168 201t293 92q61 0 61 -61.5t-61 -61.5q-84 0 -154.5 -30.5t-111.5 -75.5q-78 -86 -99 -154q-4 -12 -13 -52t-13 -52 q-2 -14 -15 -37q-20 -39 -64 -39t-84 136t-40 242.5zM430 344q0 66 61.5 66t61.5 -74t28.5 -133.5t70.5 -59.5t103.5 20.5t67.5 20.5q61 0 62 -61q0 -45 -62 -66q-111 -37 -168 -37q-109 0 -167 98.5t-58 225.5z" />
<glyph unicode="l" d="M-66 123q0 39 62 63q35 14 146.5 87t189.5 137q-45 147 -45 327q0 272 101 472t226 200q53 0 92 -33t58 -82q35 -94 35 -204.5t-24.5 -224t-58.5 -191.5t-81 -146q-70 -100 -146 -161q111 -244 228 -244q80 0 172 30.5t98 30.5q61 0 62 -61q0 -45 -62 -66 q-172 -57 -270 -57q-197 0 -330 295q-74 -59 -186.5 -131t-147.5 -87.5t-57 -15.5q-61 0 -62 62zM440 485q68 63 125 164q111 193 111 457q0 59 -16.5 119.5t-45.5 60.5q-35 0 -90 -86q-114 -178 -114 -458q0 -148 30 -257z" />
<glyph unicode="m" horiz-adv-x="2048" d="M-66 123q0 39 62 63q25 10 28 11.5l15 7.5t16 9t15.5 10t16.5 14.5t14.5 17.5t13.5 20q16 31 28.5 80.5t22.5 82t38.5 101t59.5 103.5t85 64.5t133 29.5t135.5 -91t56.5 -277q0 -66 15.5 -156t47.5 -90q16 0 35 44t31 75l28 77q61 174 121 245t133 71q86 0 123 -78 q31 -68 43 -133q41 -240 60 -240q61 0 155 144q35 53 92.5 98t120.5 45q139 0 164 -197q2 -10 5 -35.5t5 -40t7 -22.5q0 -8 4 -16q6 -16 20 -17q39 0 100.5 20.5t67.5 20.5q61 0 62 -61q0 -45 -62 -66q-111 -37 -172 -37q-133 0 -160 238q-12 90 -41 90q-61 0 -155 -143 q-35 -53 -92.5 -98.5t-117 -45.5t-94 41t-44.5 78q-12 41 -39 178.5t-36 145.5t-16 8q-29 0 -50 -36t-47.5 -99.5t-50.5 -130t-38 -98t-39 -72.5q-45 -76 -123 -76q-53 0 -90 37t-57 94q-37 115 -38 234.5t-24.5 184t-56.5 64.5q-106 0 -160 -131q-25 -63 -53 -180 q-41 -158 -195 -223q-33 -18 -67 -19q-61 0 -62 62z" />
<glyph unicode="n" horiz-adv-x="1290" d="M-66 123q0 39 66 63.5t93.5 70.5t62 105.5t48 80t34.5 49.5q20 31 36 38q43 23 95 23q84 0 127 -67.5t50 -147.5t21.5 -147.5t47 -67.5t62.5 51t52.5 112.5t72.5 113t120 51.5q53 0 77.5 -26t36 -40t20.5 -43t13 -42t12 -46q25 -111 44 -111h1q39 0 100.5 20.5t67.5 20.5 q61 0 62 -61q-1 -46 -62 -66q-111 -37 -172 -37t-96 45.5t-62.5 154t-41.5 108.5q-53 0 -113 -164q-23 -61 -74 -112.5t-128 -51.5t-120 67.5t-50 147.5t-21.5 147.5t-46.5 67.5q-23 0 -33 -12t-17.5 -23.5t-14.5 -23t-17 -29.5q-8 -18 -21 -39q-41 -72 -65 -106 q-49 -78 -146 -119q-37 -16 -59 -17q-61 0 -62 62z" />
<glyph unicode="o" d="M82 388q0 73 22.5 129t59.5 56q61 0 60 -61q0 -25 -9.5 -49.5t-9.5 -58t21.5 -68.5t62.5 -75t123 -68.5t164.5 -28.5t142 43t59.5 121q0 129 -59.5 207.5t-165.5 78.5q-49 0 -99.5 -30.5t-64.5 -30.5q-61 0 -61 61q0 39 70.5 81t154.5 42q156 0 252 -113.5t96 -295.5 q0 -131 -97 -209t-208 -78t-202 27.5t-146 69.5t-96 91q-70 86 -70 159z" />
<glyph unicode="p" d="M82 389q0 156 145.5 252t325.5 96q135 0 221 -77.5t86 -208.5q0 -78 -44 -143.5t-105 -102.5q-131 -82 -219 -82q-61 0 -62 61q0 55 62.5 60.5t153.5 65t91 140t-49 122.5t-154.5 42t-217 -61t-111.5 -155.5t86 -594.5l22 136q10 61 62 61q61 0 61 -61q0 -10 -2 -23 l-80 -494q-2 -18 -18 -39.5t-49 -21.5q-55 0 -62 61q-10 106 -76.5 494.5t-66.5 472.5z" />
<glyph unicode="q" horiz-adv-x="819" d="M82 266q0 178 144.5 324.5t285.5 146.5q78 0 164 -49q61 -37 61 -74q0 -61 -61 -61q-14 0 -62 29q-64 32 -100 32h-2q-96 0 -201.5 -114.5t-105.5 -233.5q0 -66 28.5 -104.5t73.5 -38.5q100 0 203.5 87t103.5 153.5t62 66.5q27 0 44 -16.5t17 -44.5q0 -84 -30.5 -343 t-30.5 -354v-250q0 -29 -16.5 -45t-45.5 -16q-61 0 -61 61v250q0 145 20.5 294t20.5 157q-43 -43 -122 -83t-175 -40t-155.5 82t-59.5 184z" />
<glyph unicode="r" horiz-adv-x="1105" d="M-66 123q0 39 62 63q121 49 141 88q4 6 19.5 88t37 161t78 146.5t136.5 67.5q156 0 263 -81t107 -207.5t35 -226t92 -99.5q39 0 96 24q92 37 109 37q61 0 61 -61q0 -45 -61 -66q-115 -57 -206 -57t-150.5 77t-79 171t-19.5 203q0 72 -69.5 117.5t-175.5 45.5 q-86 0 -136 -274q-20 -106 -28 -123q-35 -72 -191 -139q-37 -16 -59 -17q-61 0 -62 62z" />
<glyph unicode="s" horiz-adv-x="1105" d="M-66 123q1 38 62 63q111 45 174 95.5t155.5 146.5t120.5 121q98 86 209 86q68 0 149 -33t150.5 -117t69.5 -199.5t-135 -200.5t-357 -85q-61 0 -61 61.5t61 61.5q168 0 268.5 54t100.5 110q0 76 -49 131q-86 94 -197 94q-63 0 -125 -53q-18 -16 -117.5 -118.5t-164 -154 t-147.5 -88.5t-105 -37q-61 0 -62 62z" />
<glyph unicode="t" d="M82 717q0 49 61 61q39 9 64 13q-2 29 -2 90q0 221 41 467q10 61 61 61q61 0 62 -59q0 -10 -4 -35q-37 -221 -37 -434v-68q268 47 389 47q61 0 61 -61.5t-61 -61.5q-119 0 -383 -47q43 -567 362 -567q72 0 178.5 30.5t112.5 30.5q61 0 62 -61q0 -45 -62 -66 q-172 -57 -291 -57q-190 0 -321 155.5t-162 512.5l-47 -11q-18 -2 -23 -2q-61 0 -61 62z" />
<glyph unicode="u" horiz-adv-x="1187" d="M-66 123q0 39 61.5 64.5t156 130t94.5 235.5q0 27 16.5 44t44.5 17q61 0 62 -61q0 -158 74.5 -294t170.5 -136q43 0 189 487q18 61 78 62q31 0 45 -12.5t17 -33t11.5 -77.5t20.5 -115q10 -57 26 -123q37 -147 84 -147q39 0 70 10t37 10q61 0 61 -61q0 -45 -55 -63.5 t-102 -18.5t-78 15.5t-51 37.5q-16 20 -37 62q-23 45 -42.5 104t-21.5 69.5t-3 21.5t-3 18q-4 -8 -8 -25l-8 -25q-4 -8 -7 -17t-21.5 -63.5t-33.5 -86.5q-14 -29 -39 -70q-49 -82 -134 -82t-177 82t-143 219q-39 -63 -94 -117q-92 -90 -134.5 -106.5t-64.5 -16.5 q-61 0 -62 62z" />
<glyph unicode="v" horiz-adv-x="1187" d="M82 635q0 61 61 61q31 0 44.5 -13t17.5 -44t10 -87t10 -85t11.5 -77t14.5 -73.5t17.5 -62.5t22.5 -57q12 -16 28 -37q31 -35 85 -36q54 0 126 188t88 270q41 155 177 155h2q53 0 207 -61q61 -25 61 -62q0 -61 -61 -61q-23 0 -101 30.5t-104 30.5q-45 0 -62 -61 q-10 -49 -57 -186.5t-91 -219t-91 -114.5t-91.5 -33t-78 11.5t-59 26.5t-48 47t-38 56.5t-30 69.5t-21.5 72.5t-16.5 81t-13.5 77.5q-20 164 -20 193z" />
<glyph unicode="w" horiz-adv-x="1495" d="M82 421.5q0 151.5 41 254.5q14 33 26.5 47t34.5 14q61 0 62 -61q0 -25 -6 -39q-35 -88 -35 -186q0 -328 143 -328q88 0 134 21.5t64.5 28.5t45 23.5t39 24.5t39 27.5t34 26t33 27t29.5 24.5q-49 88 -49 170t29.5 141t60.5 59q63 0 63 -61q0 -14 -15 -50t-15 -93 q0 -84 102 -196t184 -112q164 0 164 492q0 61 61.5 61t61.5 -61q0 -614 -287 -615q-139 0 -286 164q-162 -127 -270.5 -176t-203 -49t-149.5 37q-53 39 -82 106q-53 127 -53 278.5z" />
<glyph unicode="x" d="M82 -20q0 20 24 61q139 276 197 354q-12 16 -147 205q-33 45 -33 76q0 61 61 61q27 0 70 -61l129 -180q88 133 195 198q70 43 145.5 43t126.5 -51t51 -121.5t-12 -136.5t-41 -138.5t-89.5 -119.5t-129 -47t-111.5 20.5t-61.5 42t-43 57.5t-32.5 46q-88 -145 -135 -240 l-53 -106q-14 -25 -50 -25q-61 0 -61 62zM459 391q78 -109 97 -127t63.5 -18t79 35.5t51.5 89.5q28 91 28 176v6q0 61 -61 61q-57 0 -111 -49q-20 -20 -32.5 -31.5t-32.5 -37.5q-20 -25 -29 -33q-49 -62 -53 -72z" />
<glyph unicode="y" horiz-adv-x="901" d="M82 688q0 49 58.5 49t64.5 -61q14 -135 48 -282.5t75 -147.5q133 0 206.5 67.5t161.5 239.5q25 61 62 61q61 0 61 -61q0 -258 -23.5 -554t-58.5 -454q-39 -184 -184 -184q-266 0 -266 356q0 98 54 190.5t122.5 92.5t68.5 -61q0 -14 -28 -35q-94 -66 -94 -183.5t29.5 -177 t113.5 -59.5q49 0 68 94q39 182 63 578q6 100 6 137v14q-43 -61 -62.5 -76.5l-39 -31t-36.5 -24.5t-43 -20.5t-52 -17.5q-61 -14 -129 -14q-109 0 -156 123q-63 162 -88 409q-2 12 -2 33z" />
<glyph unicode="z" horiz-adv-x="901" d="M82 675.5q0 61.5 61 61.5q324 0 449 -49t125 -156q0 -49 -61.5 -193t-61.5 -221t56.5 -168t112.5 -180t56 -163q0 -115 -78.5 -180.5t-215 -65.5t-228.5 72.5t-92 171t76.5 155t128.5 56.5q61 0 61 -62q0 -20 -74 -65q-10 -6 -14 -8.5t-12.5 -8.5t-11.5 -9t-10 -9t-9 -10 t-6 -11q-6 -8 -6 -26q0 -49 54 -86t150 -37q164 0 164 121q0 43 -56 128t-112.5 190.5t-56.5 200.5t61.5 242.5t61.5 165.5q0 82 -451 82q-61 0 -61 61.5z" />
<glyph unicode="{" horiz-adv-x="614" d="M82 492q0 47 33 92q88 119 152.5 256t64.5 225l-13 164q0 61 58.5 61t64.5 -61q12 -123 13 -164q0 -113 -72 -263.5t-162 -279.5q74 -31 86 -166q4 -57 13.5 -117.5t46 -116.5t84.5 -77q82 -35 81 -65q0 -61 -61 -62q-37 0 -61 12q-80 37 -130.5 102.5t-66.5 132 t-23.5 127t-15.5 99.5t-31 39q-61 0 -61 62z" />
<glyph unicode="|" d="M422 737l8 672q0 61 61.5 61t61.5 -61l-8 -672q0 -37 8 -301t8 -436l-8 -639q0 -61 -61.5 -61t-61.5 61l8 639q0 176 -8 438t-8 299z" />
<glyph unicode="}" horiz-adv-x="614" d="M102 1327q0 49 62 70q33 12 61 12q84 0 134.5 -55.5t50.5 -153.5q0 -49 -14.5 -149.5t-14.5 -160t16.5 -98t32.5 -49t49 -20.5q53 -14 53 -75.5t-55 -88.5q-76 -37 -100 -55q-78 -63 -78 -299q0 -94 39 -172q10 -20 10 -53q0 -61 -61 -62q-29 0 -70 80t-41 207 q0 295 127 397q10 8 57 37q-102 84 -102 262q0 49 14.5 149.5t14.5 149.5q0 86 -62 86q-12 0 -30.5 -10t-30.5 -10q-61 0 -62 61z" />
<glyph unicode="~" horiz-adv-x="819" d="M61 1188q0 39 79 99.5t153 60.5t161 -39t108.5 -39t40 12t22.5 25.5t9 37t9 35.5q10 29 53 29q61 0 61.5 -66.5t-49 -131t-155.5 -64.5q-45 0 -128 39t-128 39t-96 -49.5t-78 -49.5q-62 1 -62 62z" />
<glyph unicode="&#xa0;" />
<glyph unicode="&#xa1;" horiz-adv-x="491" d="M164 1131.5q0 33.5 22.5 51t54 17.5t55 -21.5t23.5 -53t-16 -57.5t-50 -26t-61.5 28t-27.5 61.5zM180 737q0 61 62 62q55 0 61 -62q25 -246 25 -880q0 -61 -61.5 -61t-61.5 61q0 635 -21 839z" />
<glyph unicode="&#xa2;" horiz-adv-x="901" d="M82 287q0 166 100.5 288.5t259.5 153.5q8 51 24.5 229.5t16.5 182.5q6 59 62 59q61 0 61 -61l-2 -29q0 -6 -8 -93t-15.5 -169t-13.5 -113q86 -6 132 -53t46 -110.5t-61 -63.5t-61 61q0 18 -19.5 31.5t-48.5 13.5q-18 -229 -18 -323t6 -164q86 8 142 30.5t73 22.5 q61 0 61 -59q0 -27 -24 -45q-4 -4 -29 -17q-92 -43 -209 -55q76 -285 87 -312.5t11 -39.5q0 -61 -59 -62q-45 0 -68 56q-10 27 -92 354q-145 8 -249.5 82t-104.5 205zM205 287q0 -39 28 -78q53 -76 187 -84q-6 80 -6 186.5t16 286.5q-100 -25 -162.5 -112t-62.5 -199z" />
<glyph unicode="&#xa3;" horiz-adv-x="1187" d="M82 96q0 82 65.5 132.5t159.5 50.5q47 0 90 -19l68 150h-43q-25 0 -43.5 16t-18.5 45q0 61 62 61h90l242 607q14 35 25.5 48t33.5 13q63 0 64 -61q0 -25 -9 -45l-223 -562h326q61 0 61 -61t-61 -61h-371l-92 -203q10 -4 51 -23q43 -16 72 -28q84 -31 188 -33 q25 0 86.5 17.5t86 30.5t52.5 13q61 0 62 -61q0 -27 -62 -62q-31 -18 -106.5 -39.5t-118.5 -21.5q-172 0 -364 96q-33 -63 -89.5 -124.5t-124 -61.5t-113.5 52t-46 134zM205 94.5q0 -61.5 41 -61.5q33 0 96 117q-16 6 -35 6q-102 0 -102 -61.5z" />
<glyph unicode="&#xa4;" horiz-adv-x="1392" d="M82 1004q0 61 61 61q31 0 76 -61l39 -56q37 -51 37 -71.5t-16.5 -39t-47 -18.5t-75.5 62l-39 53q-35 53 -35 70zM143 61q0 31 60 91l121 120q70 61 84 62q61 0 61 -62q0 -29 -61 -90l-119 -119q-63 -63 -84 -63q-62 0 -62 61zM369 591q0 114 89 208t211 94t156 -74 q57 0 121 -22q127 -45 127 -154q0 -150 -116.5 -224.5t-262 -74.5t-235.5 66.5t-90 180.5zM492 589.5q0 -59.5 54 -91t148 -31.5t175 44t81 132q0 27 -54 40t-114.5 13t-60.5 60q-10 14 -45 14q-78 0 -131 -60.5t-53 -120zM881 250q0 61 61 61q37 0 125 -61l104 -70 q54 -34 54 -61q0 -61 -62 -62q-37 0 -125 62l-96 69q-61 41 -61 62zM971 920q0 27 61 88l131 131q61 61 86 61q62 0 62 -61q0 -29 -62 -90l-127 -127q-63 -63 -90 -64q-61 0 -61 62z" />
<glyph unicode="&#xa5;" d="M82 1049q0 61 61 61q31 0 66 -49q86 -119 108.5 -161t62.5 -140t71 -137q4 115 26.5 192.5t47 112.5t85 106.5t94 118.5t74.5 47q61 0 62 -61q0 -16 -37 -58q-41 -59 -100.5 -127.5t-77.5 -99.5q-51 -86 -52 -287l267 27q61 0 61 -62q0 -55 -61 -61l-267 -27v-182 q164 -16 267 -16q61 0 61 -61.5t-61 -61.5q-102 0 -267 16v-78q0 -61 -61 -61t-61 61v93q-39 4 -191 26q-55 6 -55 62q0 61 61 61l185 -24v153q-233 -23 -246 -22q-61 0 -62 61q0 55 62 61l149 15q-49 66 -85 152.5t-56 127.5t-66 111q-49 68 -53 76q-12 20 -12 35z" />
<glyph unicode="&#xa6;" horiz-adv-x="532" d="M164 287q0 61 61 61q102 0 103 -438q0 -164 -11.5 -231.5t-62.5 -67.5q-61 0 -61 61q0 12 6 49t6 185q0 250 -35 344q-6 25 -6 37zM205 1139q0 61 61 61q20 0 40 -16.5t23 -46t11 -199.5t8 -201v-205q0 -61 -61.5 -61t-61.5 61v205q0 25 -10 213z" />
<glyph unicode="&#xa7;" horiz-adv-x="901" d="M82 -262q0 55 61 61q117 12 174 19q281 31 281 133q0 70 -160 129q-66 25 -133 54.5t-114.5 82.5t-47.5 122t53 136.5t164 83.5q-115 51 -180 112.5t-65 151.5q0 172 116.5 274.5t284.5 102.5q55 0 99 -36t44 -87q0 -61 -61 -61q-20 0 -40.5 30.5t-41.5 30.5 q-106 0 -192 -62.5t-86 -191.5q0 -51 60 -92t145 -73.5t170 -69.5t145.5 -99.5t60.5 -134t-42 -150.5t-105 -124q49 -53 49 -124t-39 -120t-104 -78q-111 -47 -250 -63q-25 -2 -55.5 -5t-63.5 -6t-40 -4.5t-26 -3.5q-61 0 -61 62zM266 345q0 -34 29 -61.5t61.5 -42t97 -39 t97.5 -38.5q53 2 99 67.5t46 111.5t-44 79t-90 53.5t-51 23.5t-11 5q0 -61 -76 -61.5t-117 -32t-41 -65.5z" />
<glyph unicode="&#xa8;" horiz-adv-x="696" d="M82 1221q0 61 61 61q33 0 68 -29t35 -61.5t-28 -49t-60.5 -16.5t-54 30t-21.5 65zM451 1159q0 62 61 62q33 0 68 -29t34.5 -61.5t-28 -49t-60 -16.5t-54 29.5t-21.5 64.5z" />
<glyph unicode="&#xa9;" horiz-adv-x="1269" d="M82 450.5q0 188.5 102.5 305t266.5 116.5q56 0 81 -12q0 49 62 62q102 20 164 20q182 0 306 -137t124 -347t-150.5 -334t-341.5 -124q-254 0 -434 131t-180 319.5zM205 461.5q0 -146.5 143.5 -242.5t347.5 -96q131 0 250 87t119 243.5t-85 261t-222 104.5 q-37 0 -97.5 -10t-66.5 -10q0 -31 -18.5 -46.5t-43.5 -15.5l-81 13q-98 0 -172 -71t-74 -217.5zM389 410q0 139 82 202.5t184 63.5q61 0 61.5 -61.5t-61.5 -61.5q-31 0 -57.5 -6t-56 -41t-29.5 -96.5t61 -61.5q117 0 256 70q25 12 52 12q61 0 61 -61q0 -31 -61 -62 q-164 -82 -308 -82q-80 0 -132 52.5t-52 132.5z" />
<glyph unicode="&#xaa;" horiz-adv-x="757" d="M82 963q0 94 116.5 165.5t211.5 71.5q61 0 61 -61q86 0 145.5 -70t59.5 -129t-62 -59q-33 0 -65.5 67.5t-77.5 67.5q-12 0 -28.5 -38t-34 -83t-54.5 -84q-39 -37 -100 -37t-116.5 61.5t-55.5 127.5zM164 614.5q0 61.5 61 61.5q143 0 328 37q16 4 20 4q61 0 62 -62 q-1 -49 -62 -61q-205 -41 -348 -41q-61 0 -61 61.5zM205 963q0 -66 61 -66q12 0 23.5 24.5t28 68.5t34.5 73q-147 -57 -147 -100z" />
<glyph unicode="&#xab;" horiz-adv-x="1474" d="M82 257q0 91 106 171l390 287q31 23 57 22q61 0 61 -61q0 -20 -32 -45q-8 -4 -29 -23l-369 -276q-61 -45 -61 -86q0 -61 61 -62q295 0 471 -61q61 -20 62 -62q0 -61 -62 -61q-16 0 -51 11.5t-160 30.5t-260 19q-80 0 -132 52.5t-52 143.5zM717 354.5q0 30.5 2 45t8 28.5 t10 22.5t15.5 21.5t15.5 17l92 92t82 97.5t23.5 40t38.5 18.5q61 0 61 -61q0 -14 -8 -39q-12 -43 -176 -207q-41 -41 -41 -61q0 -35 41 -47l450 -138q61 -18 62 -61q-1 -62 -62 -62l-39 7l-411 125q-115 33 -148 96q-16 35 -16 65.5z" />
<glyph unicode="&#xac;" horiz-adv-x="901" d="M82 627q0 55 61 61q492 49 553.5 49t61.5 -61l-21 -287q0 -109 20.5 -180.5t41 -103t20.5 -44.5q0 -61 -61 -61q-51 0 -97.5 108.5t-46.5 280.5q0 70 17 221q-446 -45 -488 -45q-61 0 -61 62z" />
<glyph unicode="&#xad;" d="M164 346q0 43 61 64q123 41 328 41q61 0 246 -21q61 -8 61 -61q0 -61 -61 -62q-4 0 -96.5 10.5t-149.5 10.5q-184 0 -285 -35q-18 -6 -43 -6q-61 0 -61 59z" />
<glyph unicode="&#xae;" horiz-adv-x="1372" d="M82 512q0 102 49 222t132 223.5t204 173t265.5 69.5t280.5 -117.5t206.5 -277.5t70.5 -316t-102 -217q-49 -119 -201.5 -195.5t-347.5 -76.5q-283 0 -420 135t-137 377zM205 512q0 -389 434 -389q254 0 385 127q-141 12 -323.5 99t-202.5 126l-33 -65q-31 -61 -62 -62 q-61 0 -61 62q0 31 18 61l134 258q31 59 54 98t70.5 77t98.5 38q104 0 154.5 -63.5t50.5 -146.5t-90.5 -135t-231.5 -52q61 -47 207.5 -111.5t277.5 -64.5q0 61 72 61q10 31 10 70q0 106 -54 238t-162.5 235.5t-233.5 103.5q-180 0 -346 -197.5t-166 -367.5zM600 668 q68 0 133.5 20.5t65.5 48.5q0 82 -82 82q-33 0 -90 -102q-6 -12 -15.5 -28.5t-11.5 -20.5z" />
<glyph unicode="&#xaf;" d="M82 1307q0 49 61 61q205 41 697 41q61 0 61 -61.5t-61 -61.5q-481 0 -676 -39q-16 -2 -21 -2q-61 0 -61 62z" />
<glyph unicode="&#xb0;" horiz-adv-x="634" d="M82 1147q0 113 61.5 187.5t159.5 74.5t174 -81t76 -175t-59.5 -152.5t-172 -58.5t-176 64.5t-63.5 140.5zM205 1160q0 -48 30.5 -71.5t70.5 -23.5t62.5 4t42 22.5t19.5 60.5t-37 88t-84 46t-75.5 -39t-28.5 -87z" />
<glyph unicode="&#xb1;" d="M164 -63q0 43 61 63q123 41 328 41q61 0 246 -21q61 -8 61 -61q0 -61 -61 -61q-4 0 -96.5 10t-149.5 10q-184 0 -285 -35q-18 -6 -43 -6q-61 0 -61 60zM205 389.5q0 61.5 61 61.5q80 0 191 16q-6 90 -6 209q0 61 61 61t61 -61q0 -106 7 -191l137 27q61 0 61 -61 q0 -45 -61 -62q-27 -9 -129 -27l26 -174q0 -61 -61 -61q-45 0 -61 61q-14 47 -25 156q-111 -16 -201 -16q-61 0 -61 61.5z" />
<glyph unicode="&#xb2;" horiz-adv-x="614" d="M82 1307q0 45 43 73.5t112.5 28.5t121 -49t51.5 -123t-46.5 -141.5t-92.5 -125t-46 -88t24.5 -47t57.5 -16.5h164q61 0 61 -61.5t-61 -61.5h-164q-84 0 -144.5 50.5t-60.5 122t46.5 140t92.5 126t46 90.5q0 61 -62 61q-20 0 -40.5 -20.5t-41.5 -20.5q-61 0 -61 62z" />
<glyph unicode="&#xb3;" horiz-adv-x="532" d="M82 676q0 61 61 61q20 0 40 -20.5t47.5 -20.5t62.5 30t35 73q0 20 -65.5 99t-65.5 128t16 82q18 35 39 51q55 47 55 66q0 61 -61 61q-20 0 -41 -20.5t-41 -20.5q-61 0 -62 62q0 45 43 73.5t113 28.5t121 -51t51 -133q0 -70 -82 -148q-29 -25 -29 -39t66 -95t66 -144 q0 -100 -75 -163t-141.5 -63t-109.5 29t-43 74z" />
<glyph unicode="&#xb4;" horiz-adv-x="757" d="M164 1036q0 20 11 34.5t23.5 28t18.5 21.5q188 213 346 277q31 12 51 12q61 0 62 -61q0 -16 -19.5 -35t-65.5 -37.5t-138.5 -96t-144.5 -141t-83 -63.5q-61 0 -61 61z" />
<glyph unicode="&#xb5;" horiz-adv-x="942" d="M82 -578l129 1172q6 61 64.5 61t58.5 -61q0 -51 74.5 -261t123.5 -210q74 0 139.5 167t65.5 388q0 59 61.5 59t61.5 -61q0 -362 -147 -570q-78 -106 -181 -106q-88 0 -143 86q-37 57 -90 186l-94 -850q-6 -61 -62 -61q-33 0 -47 13.5t-14 47.5z" />
<glyph unicode="&#xb6;" horiz-adv-x="839" d="M82 914.5q0 119.5 96 202.5t219 83t267 -29q57 -12 57 -73l-16 -406q0 -307 40 -549q12 -66 13 -82q0 -61 -62 -61q-51 0 -61 61q-53 266 -53 529q-51 2 -146 12q2 -37 23 -225l33 -242v-12q0 -61 -62 -62q-27 0 -40 14.5t-24.5 59.5t-33 239.5t-21.5 243.5 q-98 25 -163.5 101t-65.5 195.5zM205 913q0 -70 33.5 -111.5t72.5 -51.5v307q-106 -43 -106 -144zM434 725q78 -8 148 -12l14 344q-68 14 -162 18v-350z" />
<glyph unicode="&#xb7;" horiz-adv-x="573" d="M205 614q0 78 74 78q35 0 62.5 -28.5t27.5 -67.5t-25 -61.5t-57.5 -22.5t-57 33.5t-24.5 68.5z" />
<glyph unicode="&#xb8;" horiz-adv-x="491" d="M82 -471q0 29 14 41q20 20 61.5 25.5t60 10.5t27.5 11l21 14q20 14 20.5 49t-17 64t-60.5 72q-86 86 -86 184q0 61 61.5 61t61.5 -61q0 -49 61 -111q102 -102 102.5 -206.5t-66.5 -147.5t-175 -65q-11 -2 -25 -2q-61 0 -61 61z" />
<glyph unicode="&#xb9;" horiz-adv-x="450" d="M123 799q0 16 20.5 98t20.5 127v324q0 61 61.5 61t61.5 -61v-324q0 -61 -41 -225q-16 -61 -62 -62q-61 0 -61 62z" />
<glyph unicode="&#xba;" horiz-adv-x="634" d="M82 782.5q0 57.5 61 57.5l21 -2q4 0 45 -7q45 -8 86 -14q127 -18 176 -18q82 0 82 -61.5t-61 -61.5q-119 0 -232 20.5t-117 20.5q-61 8 -61 65.5zM82 1147q0 113 61.5 187.5t159.5 74.5t174 -81t76 -175t-59.5 -152.5t-172 -58.5t-176 64.5t-63.5 140.5zM205 1160 q0 -48 30.5 -71.5t70.5 -23.5t62.5 4t42 22.5t19.5 60.5t-37 88t-84 46t-75.5 -39t-28.5 -87z" />
<glyph unicode="&#xbb;" horiz-adv-x="1556" d="M82 512q0 61 61 61l283 -28q260 -25 347 -81t87 -138t-68.5 -136.5t-302.5 -152.5l-223 -90q-20 -8 -41 -8q-61 0 -61 61q0 25 11 37t44 24l227 93q250 104 279 141q12 12 12 33q0 29 -101 56.5t-226 39.5l-271 27q-57 6 -57 61zM737 676q0 61 62 61q14 0 45 -10l203 -63 q256 -82 342 -142.5t86 -152.5q0 -57 -45 -103q-29 -29 -82.5 -42t-110.5 -27q-98 -29 -184 -136q-47 -61 -70 -61q-61 0 -61 61q-1 25 30 70q117 158 322 205q45 10 61.5 16t16.5 21.5t-19 34.5q-61 61 -534 206q-61 18 -62 62z" />
<glyph unicode="&#xbc;" horiz-adv-x="1187" d="M123 799q0 16 20.5 98t20.5 127v324q0 61 61.5 61t61.5 -61v-324q0 -61 -41 -225q-16 -61 -62 -62q-61 0 -61 62zM369 184q0 88 28 203l176 690q16 61 62 62q61 0 61 -62q0 -18 -10 -59l-174 -686q-20 -82 -20 -145.5t-61.5 -63.5t-61.5 61zM737 198.5q0 75.5 19.5 138 t38 94.5t41 65.5t26.5 41t6 9.5t6.5 8t6.5 8t6 7t7 7.5t7 4.5q8 4 12 4q16 4 21 4q61 0 61 -62q0 -14 -45 -81.5t-67.5 -121t-22.5 -118t62 -64.5q45 0 61 62q6 29 23.5 45t37.5 16q61 0 62 -61q0 -33 -10.5 -89.5t-10.5 -95t10.5 -76.5t10.5 -46q0 -61 -62 -62 q-27 0 -39 14.5t-27 64.5t-15 126q-18 -20 -41 -21q-82 0 -133.5 51.5t-51.5 127z" />
<glyph unicode="&#xbd;" horiz-adv-x="1269" d="M123 799q0 16 20.5 98t20.5 127v324q0 61 61.5 61t61.5 -61v-324q0 -61 -41 -225q-16 -61 -62 -62q-61 0 -61 62zM369 164q0 88 28 203l176 690q16 61 62 61q61 0 61 -61q0 -18 -10 -60l-174 -686q-20 -82 -20 -145.5t-61.5 -63.5t-61.5 62zM737 446q0 45 43 74t113 29 t121 -49t51 -123t-46 -141.5t-92 -125t-46 -88t24.5 -47t57.5 -16.5h163q61 0 61 -61.5t-61 -61.5h-163q-84 0 -144.5 50.5t-60.5 122t46 140t92 126t46 90.5q0 61 -61 61q-20 0 -41 -20.5t-41 -20.5q-61 0 -62 61z" />
<glyph unicode="&#xbe;" horiz-adv-x="1392" d="M82 676q0 61 61 61q20 0 40 -20.5t47.5 -20.5t62.5 30t35 73q0 20 -65.5 99t-65.5 128t16 82q18 35 39 51q55 47 55 66q0 61 -61 61q-20 0 -41 -20.5t-41 -20.5q-61 0 -62 62q0 45 43 73.5t113 28.5t121 -51t51 -133q0 -70 -82 -148q-29 -25 -29 -39t66 -95t66 -144 q0 -100 -75 -163t-141.5 -63t-109.5 29t-43 74zM553 102q0 88 29 203l176 690q16 61 61 62q61 0 62 -62q0 -18 -11 -59l-174 -686q-20 -82 -20 -145.5t-61.5 -63.5t-61.5 61zM942 198.5q0 75.5 19.5 138t38 94.5t41 65.5t26.5 41t6 9.5t6 8t6 8t6.5 7t7.5 7.5t7 4.5 q8 4 12 4q16 4 21 4q61 0 61 -62q0 -14 -45 -81.5t-67.5 -121t-22.5 -118t61 -64.5q45 0 62 62q6 29 23.5 45t37.5 16q61 0 62 -61q0 -33 -10.5 -89.5t-10.5 -95t10.5 -76.5t10.5 -46q0 -61 -62 -62q-27 0 -39 14.5t-27.5 64.5t-15.5 126q-18 -20 -41 -21q-82 0 -133 51.5 t-51 127z" />
<glyph unicode="&#xbf;" horiz-adv-x="655" d="M82 196.5q0 61.5 82 160t82 167.5v213q0 61 61.5 61.5t61.5 -61.5v-213q0 -131 -123 -262q-41 -45 -41 -57q0 -33 87 -57.5t220 -24.5q61 0 61 -61.5t-61 -61.5q-262 0 -352 74q-78 61 -78 122.5zM188 1114q1 86 58 86q29 0 55.5 -25.5t26.5 -63.5t-24.5 -70.5 t-54.5 -32.5t-45.5 33.5t-15.5 72.5z" />
<glyph unicode="&#xc0;" d="M82 61q0 27 14 54q113 227 203 673q16 82 68.5 118t113 36t125.5 -94q123 -172 182 -438h52q29 0 45 -18.5t16 -43t-16.5 -43t-44.5 -18.5h-29q8 -55 8 -119t-51 -116t-120.5 -52t-153.5 82t-84 164q0 141 256 157q-33 133 -95.5 274.5t-92 141.5t-42 -14t-18.5 -47 q-92 -457 -211 -697q-18 -39 -31.5 -50t-32.5 -11q-61 0 -61 61zM492 1346q0 63 61 63q25 0 83 -48t134 -135t117 -169q14 -27 14 -49q0 -61 -61 -62q-35 0 -66 62q-72 141 -221 262q-61 49 -61 76zM532 246q0 -31 46.5 -77t76.5 -46q41 0 41 56.5t-8 103.5 q-156 -10 -156 -37z" />
<glyph unicode="&#xc1;" d="M82 61q0 27 14 54q113 227 203 673q16 82 68.5 118t113 36t125.5 -94q123 -172 182 -438h52q29 0 45 -18.5t16 -43t-16.5 -43t-44.5 -18.5h-29q8 -55 8 -119t-51 -116t-120.5 -52t-153.5 82t-84 164q0 141 256 157q-33 133 -95.5 274.5t-92 141.5t-42 -14t-18.5 -47 q-92 -457 -211 -697q-18 -39 -31.5 -50t-32.5 -11q-61 0 -61 61zM532 246q0 -31 46.5 -77t76.5 -46q41 0 41 56.5t-8 103.5q-156 -10 -156 -37zM532 1126q0 27 46 58q70 43 155 172q35 53 66 53q61 0 61 -61q0 -20 -24 -58q-98 -147 -191 -209q-24 -16 -51 -16q-61 0 -62 61 z" />
<glyph unicode="&#xc2;" d="M82 61q0 27 14 54q113 227 203 673q16 82 68.5 118t113 36t125.5 -94q123 -172 182 -438h52q29 0 45 -18.5t16 -43t-16.5 -43t-44.5 -18.5h-29q8 -55 8 -119t-51 -116t-120.5 -52t-153.5 82t-84 164q0 141 256 157q-33 133 -95.5 274.5t-92 141.5t-42 -14t-18.5 -47 q-92 -457 -211 -697q-18 -39 -31.5 -50t-32.5 -11q-61 0 -61 61zM143 1126q0 27 62 88l53.5 53.5t44 42t32.5 29t30.5 22.5t35 20t33.5 14q35 14 81 14t85 -29t62 -77q55 -119 55 -178.5t-60 -59.5q-51 0 -63 61q-10 49 -32.5 104.5t-49.5 55.5q-43 0 -87 -34.5t-120 -110.5 t-100 -76q-61 0 -62 61zM532 246q0 -31 46.5 -77t76.5 -46q41 0 41 56.5t-8 103.5q-156 -10 -156 -37z" />
<glyph unicode="&#xc3;" d="M82 61q0 27 14 54q113 227 203 673q16 82 68.5 118t113 36t125.5 -94q123 -172 182 -438h52q29 0 45 -18.5t16 -43t-16.5 -43t-44.5 -18.5h-29q8 -55 8 -119t-51 -116t-120.5 -52t-153.5 82t-84 164q0 141 256 157q-33 133 -95.5 274.5t-92 141.5t-42 -14t-18.5 -47 q-92 -457 -211 -697q-18 -39 -31.5 -50t-32.5 -11q-61 0 -61 61zM205 1188q0 39 78.5 99.5t152.5 60.5t161 -39t108.5 -39t40 12t22.5 25.5t9 37t9 35.5q10 29 54 29q61 0 61 -66.5t-49 -131t-156 -64.5q-45 0 -128 39t-128 39t-96 -49.5t-78 -49.5q-61 1 -61 62zM532 246 q0 -31 46.5 -77t76.5 -46q41 0 41 56.5t-8 103.5q-156 -10 -156 -37z" />
<glyph unicode="&#xc4;" d="M82 61q0 27 14 54q113 227 203 673q16 82 68.5 118t113 36t125.5 -94q123 -172 182 -438h52q29 0 45 -18.5t16 -43t-16.5 -43t-44.5 -18.5h-29q8 -55 8 -119t-51 -116t-120.5 -52t-153.5 82t-84 164q0 141 256 157q-33 133 -95.5 274.5t-92 141.5t-42 -14t-18.5 -47 q-92 -457 -211 -697q-18 -39 -31.5 -50t-32.5 -11q-61 0 -61 61zM246 1221q0 61 61 61q33 0 68 -29.5t35 -61.5t-28 -48.5t-60.5 -16.5t-54 30t-21.5 65zM532 246q0 -31 46.5 -77t76.5 -46q41 0 41 56.5t-8 103.5q-156 -10 -156 -37zM614 1159q1 62 62 62q33 0 67.5 -30 t34.5 -61.5t-27.5 -48t-60.5 -16.5t-54.5 29.5t-21.5 64.5z" />
<glyph unicode="&#xc5;" d="M82 59q0 10 4 35q25 213 94.5 490.5t104 351.5t69.5 106q-49 25 -78.5 70t-29.5 114.5t51 126t119.5 56.5t115 -22.5t75 -65.5t28.5 -98.5t-24.5 -103.5t-67.5 -75q41 -45 66.5 -151.5t52 -220t49.5 -199.5l88 10q29 0 45 -17t16 -44q0 -55 -61 -62q-33 -4 -56 -8 q68 -229 146 -370q12 -23 12 -43q0 -61 -61 -62q-33 0 -62 49q-80 143 -160 416q-29 -2 -65 -2q-188 0 -295 31q-41 -205 -53 -310q-6 -61 -62 -61q-61 0 -61 59zM285 494q96 -31 268 -31h33q-25 92 -56.5 234.5t-49 204t-29.5 61.5q-55 0 -166 -469zM369 1212 q0 -29 24.5 -49t55 -20t47 24.5t16.5 55t-24.5 47t-57.5 16.5q-61 0 -61 -74z" />
<glyph unicode="&#xc6;" horiz-adv-x="1392" d="M82 61l4 25l240 938q43 176 182 176q37 0 74 -22q47 -35 71.5 -112t59.5 -235q49 176 139 272.5t213 96.5q66 0 125 -32.5t59 -69.5q0 -61 -61 -62q-18 0 -54 20.5t-69 20.5q-115 0 -189.5 -153.5t-84.5 -415.5h356q61 0 61 -61.5t-61 -61.5h-354q14 -100 80.5 -181 t146.5 -81q43 0 93 13.5t79 30.5t57 17q61 0 62 -57q0 -25 -33 -45q-4 -4 -14.5 -11.5t-25.5 -17.5t-83 -31.5t-135 -21.5q-127 0 -223 106q-31 -106 -133 -106q-72 0 -133.5 85t-87 162t-25.5 97q0 86 68.5 125t160.5 39q-92 569 -138 569t-67 -84l-237 -932 q-8 -33 -21.5 -47t-40.5 -14q-61 0 -61 61zM541 346q0 -39 48 -131t75 -92q20 0 20 80t-20 182q-123 0 -123 -39z" />
<glyph unicode="&#xc7;" d="M82 496q0 129 32.5 252.5t94 226t161 164t224.5 61.5q66 0 106 -22q78 -41 78 -80q0 -61 -61 -62q-18 0 -54 20.5t-69 20.5q-96 0 -174 -53t-123 -139q-92 -176 -92 -393q0 -201 121 -312q63 -57 145 -57q152 0 320 84q37 18 49 18q61 0 61 -61q0 -25 -12 -38t-49 -32 q-125 -61 -246 -84v-12q0 -49 61 -111q102 -102 103 -217q0 -100 -80 -145q-66 -37 -162 -57q-10 -2 -24 -3q-61 0 -62 62q0 29 14.5 42t31 16t35.5 7.5t27.5 5.5t27 6t27.5 11t19 14q23 14 23 49t-17.5 64t-56.5 68q-90 90 -90 188v2q-119 0 -209 72.5t-135 183.5t-45 240z " />
<glyph unicode="&#xc8;" d="M82 840q0 61 61 61h43q10 41 60.5 41t58.5 -39q342 6 514 37q16 2 21 2q61 0 61 -61q0 -49 -61 -62q-182 -33 -535 -39l-8 -270q90 -29 469 -29q61 0 61 -61.5t-61 -61.5q-354 0 -473 25q-6 -186 -6 -322q0 -61 -61.5 -61t-61.5 61q0 508 -68 695q-14 39 -14 84zM307 102 q0 59 62 60q18 0 71.5 -17.5t157.5 -19.5t168.5 7t73.5 9q61 0 61 -61q0 -25 -18 -41.5t-43 -20.5q-152 -18 -253.5 -18t-217.5 39q-61 20 -62 63zM328 1348q0 61 61 61q31 0 66 -53q86 -129 155 -172q45 -31 45 -58q0 -61 -61 -61q-27 0 -51 16q-92 61 -191 209 q-25 37 -24 58z" />
<glyph unicode="&#xc9;" d="M82 840q0 61 61 61h43q10 41 60.5 41t58.5 -39q342 6 514 37q16 2 21 2q61 0 61 -61q0 -49 -61 -62q-182 -33 -535 -39l-8 -270q90 -29 469 -29q61 0 61 -61.5t-61 -61.5q-354 0 -473 25q-6 -186 -6 -322q0 -61 -61.5 -61t-61.5 61q0 508 -68 695q-14 39 -14 84zM307 102 q0 59 62 60q18 0 71.5 -17.5t157.5 -19.5t168.5 7t73.5 9q61 0 61 -61q0 -25 -18 -41.5t-43 -20.5q-152 -18 -253.5 -18t-217.5 39q-61 20 -62 63zM479 1126q0 27 45 58q70 43 156 172q35 53 65 53q61 0 62 -61q0 -20 -25 -58q-98 -147 -190 -209q-24 -16 -51 -16 q-61 0 -62 61z" />
<glyph unicode="&#xca;" d="M82 840q0 61 61 61h43q10 41 60.5 41t58.5 -39q342 6 514 37q16 2 21 2q61 0 61 -61q0 -49 -61 -62q-182 -33 -535 -39l-8 -270q90 -29 469 -29q61 0 61 -61.5t-61 -61.5q-354 0 -473 25q-6 -186 -6 -322q0 -61 -61.5 -61t-61.5 61q0 508 -68 695q-14 39 -14 84z M246 1126q0 27 61 88l53.5 53.5t44 42t32.5 29t30.5 22.5t35 20t34.5 14q35 14 81 14t84 -29q39 -29 62 -77q55 -119 55 -178.5t-59 -59.5q-51 0 -64 61q-10 49 -32.5 104.5t-49.5 55.5q-43 0 -87 -34.5t-119.5 -110.5t-100.5 -76q-61 0 -61 61zM307 102q0 59 62 60 q18 0 71.5 -17.5t157.5 -19.5t168.5 7t73.5 9q61 0 61 -61q0 -25 -18 -41.5t-43 -20.5q-152 -18 -253.5 -18t-217.5 39q-61 20 -62 63z" />
<glyph unicode="&#xcb;" d="M82 840q0 61 61 61h43q10 41 60.5 41t58.5 -39q342 6 514 37q16 2 21 2q61 0 61 -61q0 -49 -61 -62q-182 -33 -535 -39l-8 -270q90 -29 469 -29q61 0 61 -61.5t-61 -61.5q-354 0 -473 25q-6 -186 -6 -322q0 -61 -61.5 -61t-61.5 61q0 508 -68 695q-14 39 -14 84zM307 102 q0 59 62 60q18 0 71.5 -17.5t157.5 -19.5t168.5 7t73.5 9q61 0 61 -61q0 -25 -18 -41.5t-43 -20.5q-152 -18 -253.5 -18t-217.5 39q-61 20 -62 63zM328 1221q0 61 61 61q33 0 68 -29.5t35 -61.5t-28 -48.5t-60.5 -16.5t-54 30t-21.5 65zM696 1159q1 62 62 62q33 0 67.5 -30 t34.5 -61.5t-27.5 -48t-60.5 -16.5t-54.5 29.5t-21.5 64.5z" />
<glyph unicode="&#xcc;" horiz-adv-x="737" d="M246 1348q0 61 61 61q35 0 66 -61q72 -141 221 -263q61 -48 61 -75q0 -63 -61 -64q-25 0 -82 49t-134 135.5t-118 167.5q-14 27 -14 50zM287 799q0 61 61.5 61t61.5 -61q0 -219 18 -514q2 -51 22.5 -133.5t20.5 -90.5q0 -61 -61 -61q-45 0 -62 61q-39 160 -43 207 q-18 295 -18 531z" />
<glyph unicode="&#xcd;" horiz-adv-x="737" d="M246 799q0 61 61.5 61t61.5 -61q0 -219 18 -514q2 -51 22.5 -133.5t20.5 -90.5q0 -61 -61 -61q-45 0 -62 61q-39 160 -43 207q-18 295 -18 531zM328 983q0 23 22 45q102 102 178 320q18 61 66 61q61 0 61 -61q0 -10 -10 -41q-82 -240 -207 -365q-20 -20 -49 -20 q-61 0 -61 61z" />
<glyph unicode="&#xce;" horiz-adv-x="737" d="M82 1126q0 27 61 88l53.5 53.5t44 42t33 29t31 22.5t34.5 20t34 14q35 14 81 14t85 -29t61 -77q55 -119 55 -178.5t-59 -59.5q-51 0 -64 61q-10 49 -32.5 104.5t-48.5 55.5q-43 0 -86 -34.5t-120 -110.5t-102 -76q-61 0 -61 61zM246 799q0 61 61.5 61t61.5 -61 q0 -219 18 -514q4 -53 23.5 -134.5t19.5 -89.5q0 -61 -61 -61q-45 0 -62 61q-39 160 -43 207q-18 295 -18 531z" />
<glyph unicode="&#xcf;" horiz-adv-x="737" d="M123 1221q0 61 61 61q33 0 68 -29t35 -61.5t-28 -49t-60.5 -16.5t-54 30t-21.5 65zM246 799q0 61 61.5 61t61.5 -61q0 -219 18 -514q2 -51 22.5 -133.5t20.5 -90.5q0 -61 -61 -61q-45 0 -62 61q-39 160 -43 207q-18 295 -18 531zM492 1282q0 61 61 61q33 0 68 -28 q35 -29 34.5 -61.5t-28 -49t-60 -16.5t-54 29.5t-21.5 64.5z" />
<glyph unicode="&#xd0;" horiz-adv-x="1146" d="M82 630.5q0 57.5 61 65.5l103 15q6 164 41 288q16 51 61 103q88 98 287 98q160 0 295 -119.5t135 -257.5q0 -219 -152 -379q-111 -115 -266 -229.5t-188 -142.5q-33 -31 -45 -43l-19 -19q-25 -25 -59 -24q-61 0 -62 63q0 41 261 238q131 98 205.5 160.5t138 163 t63.5 199.5t-102.5 183t-193.5 84t-136 -16q-88 -31 -109 -111q-29 -113 -30 -225q131 12 182 12q61 0 61 -61q0 -27 -16 -44.5t-57 -17.5t-172 -12q4 -211 24 -285q4 -25 4 -30q0 -61 -61 -62q-31 0 -43 13q-39 41 -47 350l-82 -13l-21 -2q-61 0 -61 57.5z" />
<glyph unicode="&#xd1;" d="M82 143q0 266 57 553q35 184 168 185q66 0 121 -51.5t64 -133.5q0 -53 16 -184t25.5 -183.5t21.5 -101.5q27 -104 59 -104q43 0 83 222t40 392q0 70 34 137.5t69 67.5q61 0 61 -61q0 -16 -20.5 -57.5t-20.5 -86.5q0 -152 -26.5 -323.5t-67.5 -290.5q-20 -57 -61 -90 t-89.5 -33t-90.5 33t-60.5 86t-32.5 113.5t-23.5 113.5t-16.5 112.5t-10 97.5t-6 75t-3 41q-10 86 -66 86q-31 0 -47 -82q-55 -276 -55 -533q0 -45 10 -86t10 -57q0 -61 -61 -61q-45 0 -63.5 71.5t-18.5 132.5zM246 1249q0 27 24 51q72 72 185 72q61 0 128.5 -41t92.5 -41 q82 0 101.5 59.5t62.5 59.5q61 0 61 -61q0 -20 -4 -33q-23 -66 -81 -107t-130 -41t-139 41t-92 41q-61 0 -92 -30.5t-56 -30.5q-61 0 -61 61z" />
<glyph unicode="&#xd2;" d="M82 430q0 104 43 215t126 188.5t179 77.5q33 0 66 -4q8 2 28 13q43 23 105 22q119 0 195.5 -121t76.5 -248q0 -221 -127 -397t-323 -176q-164 0 -266.5 115.5t-102.5 314.5zM205 411q0 -130 65.5 -209t180.5 -79q145 0 236 141.5t91 308.5q0 88 -44 167t-105 79 q-33 0 -72 -18.5t-57 -18.5q-31 6 -70 6q-90 0 -157.5 -123.5t-67.5 -253.5zM492 1348q0 61 61 61q31 0 65 -53q86 -129 156 -172q45 -31 45 -58q0 -61 -61 -61q-27 0 -51 16q-92 61 -191 209q-25 37 -24 58z" />
<glyph unicode="&#xd3;" d="M82 430q0 104 43 215t126 188.5t179 77.5q33 0 66 -4q8 2 28 13q43 23 105 22q119 0 195.5 -121t76.5 -248q0 -221 -127 -397t-323 -176q-164 0 -266.5 115.5t-102.5 314.5zM205 411q0 -130 65.5 -209t180.5 -79q145 0 236 141.5t91 308.5q0 88 -44 167t-105 79 q-33 0 -72 -18.5t-57 -18.5q-31 6 -70 6q-90 0 -157.5 -123.5t-67.5 -253.5zM492 1126q0 27 45 58q70 43 155 172q35 53 66 53q61 0 61 -61q0 -20 -24 -58q-98 -147 -191 -209q-24 -16 -51 -16q-61 0 -61 61z" />
<glyph unicode="&#xd4;" d="M82 430q0 104 43 215t126 188.5t179 77.5q33 0 66 -4q8 2 28 13q43 23 105 22q119 0 195.5 -121t76.5 -248q0 -221 -127 -397t-323 -176q-164 0 -266.5 115.5t-102.5 314.5zM205 411q0 -130 65.5 -209t180.5 -79q145 0 236 141.5t91 308.5q0 88 -44 167t-105 79 q-33 0 -72 -18.5t-57 -18.5q-31 6 -70 6q-90 0 -157.5 -123.5t-67.5 -253.5zM246 1126q0 27 61 88l53.5 53.5t44 42t32.5 29t30.5 22.5t35 20t34.5 14q35 14 81 14t84 -29q39 -29 62 -77q55 -119 55 -178.5t-59 -59.5q-51 0 -64 61q-10 49 -32.5 104.5t-49.5 55.5 q-43 0 -87 -34.5t-119.5 -110.5t-100.5 -76q-61 0 -61 61z" />
<glyph unicode="&#xd5;" d="M82 430q0 104 43 215t126 188.5t179 77.5q33 0 66 -4q8 2 28 13q43 23 105 22q119 0 195.5 -121t76.5 -248q0 -221 -127 -397t-323 -176q-164 0 -266.5 115.5t-102.5 314.5zM205 411q0 -130 65.5 -209t180.5 -79q145 0 236 141.5t91 308.5q0 88 -44 167t-105 79 q-33 0 -72 -18.5t-57 -18.5q-31 6 -70 6q-90 0 -157.5 -123.5t-67.5 -253.5zM225 1249q0 27 25 51q72 72 184 72q61 0 129 -41t92 -41q82 0 101.5 59.5t62.5 59.5q61 0 62 -61q0 -20 -4 -33q-23 -66 -81.5 -107t-130 -41t-139 41t-92.5 41q-61 0 -92 -30.5t-55 -30.5 q-61 0 -62 61z" />
<glyph unicode="&#xd6;" d="M82 430q0 104 43 215t126 188.5t179 77.5q33 0 66 -4q8 2 28 13q43 23 105 22q119 0 195.5 -121t76.5 -248q0 -221 -127 -397t-323 -176q-164 0 -266.5 115.5t-102.5 314.5zM205 411q0 -130 65.5 -209t180.5 -79q145 0 236 141.5t91 308.5q0 88 -44 167t-105 79 q-33 0 -72 -18.5t-57 -18.5q-31 6 -70 6q-90 0 -157.5 -123.5t-67.5 -253.5zM246 1221q0 61 61 61q33 0 68 -29.5t35 -61.5t-28 -48.5t-60.5 -16.5t-54 30t-21.5 65zM614 1159q1 62 62 62q33 0 67.5 -30t34.5 -61.5t-27.5 -48t-60.5 -16.5t-54.5 29.5t-21.5 64.5z" />
<glyph unicode="&#xd7;" horiz-adv-x="655" d="M82 184q0 29 61 90l82 82q-20 29 -61 111t-41 106q0 61 61 62q37 0 78 -100q25 -57 49 -93l111 111q61 61 90 61q61 0 61 -61q1 -22 -67 -90l-111 -111q45 -39 101.5 -67.5t56.5 -59.5q0 -61 -61 -61q-29 0 -80.5 25.5t-102.5 76.5l-82 -82q-10 -12 -41.5 -36.5 t-42.5 -24.5q-61 0 -61 61z" />
<glyph unicode="&#xd8;" horiz-adv-x="1187" d="M82 553q0 152 106 369q49 98 131 168.5t177 70.5q37 0 77 -4q47 37 138 43q25 111 32 146.5t20 49t44 13.5q59 0 59 -61q0 -12 -16 -95l-12 -53q88 -20 149 -98q119 -150 119 -356.5t-53 -356.5q-53 -147 -140 -229q-170 -160 -391 -160h-55q-6 -20 -25.5 -96t-25.5 -97 q-18 -61 -62 -61q-61 0 -61 61q0 43 53 222q-264 94 -264 524zM205 553q0 -338 182 -408q190 559 285 906q-29 -25 -54 -25l-38 6q-37 6 -84 6q-78 0 -147.5 -92t-106.5 -203.5t-37 -189.5zM510 123q131 0 226 50t149 140q98 172 98 424q0 113 -47 218.5t-129 121.5 q-96 -373 -297 -954z" />
<glyph unicode="&#xd9;" d="M82 737q0 61 61.5 61t61.5 -61q0 -311 43 -463q18 -68 58 -109.5t87 -41.5q92 0 169 80t130 215q86 219 86 463q0 61 61.5 61t61.5 -61q0 -264 -98 -510q-68 -168 -171.5 -269.5t-238.5 -101.5q-90 0 -161.5 67.5t-102.5 178.5q-47 164 -47 491zM246 1346q0 63 61 63 q25 0 82 -49t134 -135t118 -168q14 -27 14 -49q0 -61 -61 -62q-35 0 -66 62q-72 141 -221 262q-61 49 -61 76z" />
<glyph unicode="&#xda;" d="M82 737q0 61 61.5 61t61.5 -61q0 -311 43 -463q18 -68 58 -109.5t87 -41.5q92 0 169 80t130 215q86 219 86 463q0 61 61.5 61t61.5 -61q0 -264 -98 -510q-68 -168 -171.5 -269.5t-238.5 -101.5q-90 0 -161.5 67.5t-102.5 178.5q-47 164 -47 491zM246 1036q0 20 11 34.5 t23.5 28t18.5 21.5q188 213 346 277q31 12 51 12q61 0 62 -61q0 -16 -19.5 -35t-65.5 -37.5t-138.5 -96t-145.5 -143.5q-53 -61 -82 -61q-61 0 -61 61z" />
<glyph unicode="&#xdb;" d="M82 737q0 61 61.5 61t61.5 -61q0 -311 43 -463q18 -68 58 -109.5t87 -41.5q92 0 169 80t130 215q86 219 86 463q0 61 61.5 61t61.5 -61q0 -264 -98 -510q-68 -168 -171.5 -269.5t-238.5 -101.5q-90 0 -161.5 67.5t-102.5 178.5q-47 164 -47 491zM164 1126q0 27 61 88 l53.5 53.5t44 42t33 29t31 22.5t34.5 20t34 14q35 14 81 14t85 -29t61 -77q55 -119 55 -178.5t-59 -59.5q-51 0 -64 61q-10 49 -32.5 104.5t-49.5 55.5q-43 0 -87 -34.5t-119.5 -110.5t-100.5 -76q-61 0 -61 61z" />
<glyph unicode="&#xdc;" d="M82 737q0 61 61.5 61t61.5 -61q0 -311 43 -463q18 -68 58 -109.5t87 -41.5q92 0 169 80t130 215q86 219 86 463q0 61 61.5 61t61.5 -61q0 -264 -98 -510q-68 -168 -171.5 -269.5t-238.5 -101.5q-90 0 -161.5 67.5t-102.5 178.5q-47 164 -47 491zM164 1221q0 61 61 61 q33 0 68 -29t35 -61.5t-28 -49t-60.5 -16.5t-54 30t-21.5 65zM532 1159q1 62 62 62q33 0 68 -29t34.5 -61.5t-28 -49t-60.5 -16.5t-54.5 29.5t-21.5 64.5z" />
<glyph unicode="&#xdd;" d="M82 881q0 61 59 61q23 0 64 -49q8 -8 55 -69.5t77 -91.5t90 -61.5t121.5 -31.5t130.5 43t97 104q27 61 64 62q61 0 61 -62q0 -109 -67 -270l-183 -461q-22 -55 -63 -55q-61 0 -62 61q0 10 15 50l176 450q-76 -45 -142.5 -45t-109.5 10.5t-76 22.5t-68.5 38.5t-56 43 t-51.5 52.5t-40 48t-35.5 49t-31 41t-14.5 26.5t-10 33.5zM410 1036q0 20 11 34.5t23.5 28t18.5 21.5q188 213 346 277q31 12 51 12q61 0 62 -61q0 -16 -19.5 -35t-65.5 -37.5t-138.5 -96t-144.5 -141t-83 -63.5q-61 0 -61 61z" />
<glyph unicode="&#xde;" horiz-adv-x="1085" d="M82 897v451q0 61 61.5 61t61.5 -61v-220q111 72 409 72q164 0 277 -102.5t113 -257.5q0 -78 -63.5 -135.5t-145.5 -86.5q-86 -27 -189 -43q-141 -23 -209.5 -22.5t-124.5 16.5q96 -412 97 -508q0 -61 -61.5 -61t-61.5 61q0 25 -82 400t-82 436zM205 888q0 -38 22 -114 q29 -98 142 -98q78 0 223 22q289 45 289 143.5t-74 167t-194.5 68.5t-216 -14t-135.5 -48t-48 -61.5t-8 -65.5z" />
<glyph unicode="&#xdf;" d="M82 266q0 342 78 613q41 147 126 234t194.5 87t162.5 -91t53 -187q0 -172 -75 -277q129 -10 204.5 -86t75.5 -211q0 -86 -51 -145.5t-133 -59.5q-164 0 -246 41q-35 16 -48 28.5t-13 33.5q0 61 61 61q23 0 78 -20.5t168 -20.5q31 0 46 23.5t15 58.5q0 184 -205 184 q-31 0 -71.5 -20t-71.5 -20q-61 0 -61 61q0 12 4 17t6 8.5t6 7.5t8 6q14 8 24.5 15t12.5 7q143 88 143 308q0 55 -25.5 105t-55.5 50q-78 0 -135.5 -71.5t-90.5 -192.5q-61 -238 -61 -547q0 -395 137 -807q6 -18 6 -39.5t-16.5 -40t-40 -18.5t-35.5 8q-16 12 -31 53 q-143 430 -143 844z" />
<glyph unicode="&#xe0;" d="M82 205q0 219 155.5 375.5t315.5 156.5q88 0 146.5 -43t58.5 -80q0 -61 -62 -61q-16 0 -32 16q-45 45 -111 45q-106 0 -227 -120.5t-121 -288.5q0 -37 22.5 -59.5t59.5 -22.5q82 0 160.5 55t99.5 98q55 113 98 113q27 0 49.5 -24.5t84 -148.5t61.5 -155q0 -61 -62 -61 q-20 0 -32.5 13.5t-28.5 47.5l-72 144q-27 -53 -131 -129t-210.5 -76t-164 57.5t-57.5 147.5zM492 1348q0 61 61 61q35 0 65 -61q72 -141 222 -263q61 -48 61 -75q0 -63 -61 -64q-25 0 -83.5 48t-134 135.5t-116.5 168.5q-14 27 -14 50z" />
<glyph unicode="&#xe1;" d="M82 246q0 199 164 345t332 146q92 0 158.5 -33.5t66.5 -68.5q0 -61 -62 -62q-12 0 -59 20.5t-104 20.5q-111 0 -242 -107.5t-131 -260.5q0 -31 25.5 -56.5t56.5 -25.5q121 0 225 64.5t133 106.5t47.5 76.5t27.5 46t40 11.5t47 -22.5t30.5 -70.5t29 -107.5t26 -80 t29.5 -20.5l65 16q61 0 62 -61q0 -45 -62 -66q-37 -12 -72.5 -12t-68.5 16.5t-51 49.5q-31 53 -45 114l-9 35q-35 -59 -169 -139t-285 -80q-82 0 -143.5 61.5t-61.5 143.5zM328 1034q0 20 11 34.5t23.5 28t18.5 21.5q188 213 346 277q31 12 51 12q61 0 62 -61 q0 -35 -65.5 -63t-158 -105.5t-144.5 -141t-83 -63.5q-61 0 -61 61z" />
<glyph unicode="&#xe2;" d="M82 279q0 205 116.5 331.5t278.5 126.5t262 -90q63 -57 64 -86q0 -61 -62 -61q-23 0 -86 57t-173.5 57t-193.5 -88t-83 -247q0 -90 39 -123t108.5 -33t124.5 18.5t92 55.5q70 61 131 176q18 33 25.5 39t36.5 6q57 0 69 -60q33 -137 45.5 -165.5t41.5 -28.5l69 20 q61 0 62 -61q0 -45 -55.5 -63.5t-75.5 -18.5q-131 0 -177 168q-135 -209 -389 -209q-115 0 -192.5 65.5t-77.5 213.5zM164 1044q0 31 61 89q18 18 56 55t52.5 52t44.5 43t43 39t37.5 29.5t40 25.5t36.5 16q35 16 71.5 16t62 -11.5t43 -27.5t33 -43t24.5 -48.5t18.5 -54 t13.5 -48.5q14 -57 14 -74q4 -14 4 -25q0 -61 -59 -61q-51 0 -64 61q-41 209 -83 209t-96 -45t-132 -123l-86 -86q-8 -8 -12 -11t-11 -9q-18 -18 -24 -20.5t-10 -4.5q-8 -4 -17 -4q-61 0 -61 61z" />
<glyph unicode="&#xe3;" d="M82 279q0 205 116.5 331.5t278.5 126.5t262 -90q63 -57 64 -86q0 -61 -62 -61q-23 0 -86 57t-173.5 57t-193.5 -88t-83 -247q0 -90 39 -123t108.5 -33t124.5 18.5t92 55.5q70 61 131 176q18 33 25.5 39t36.5 6q57 0 69 -60q33 -137 45.5 -165.5t41.5 -28.5l69 20 q61 0 62 -61q0 -45 -55.5 -63.5t-75.5 -18.5q-131 0 -177 168q-135 -209 -389 -209q-115 0 -192.5 65.5t-77.5 213.5zM143 1188q0 39 79 99.5t153 60.5t161 -39t108.5 -39t39.5 12t22.5 25.5t9.5 37t9 35.5q10 29 53 29q61 0 61.5 -66.5t-49 -131t-155.5 -64.5 q-45 0 -128 39t-128 39t-96.5 -49.5t-77.5 -49.5q-62 1 -62 62z" />
<glyph unicode="&#xe4;" d="M82 246q0 199 164 345t332 146q92 0 158.5 -33.5t66.5 -68.5q0 -61 -62 -62q-12 0 -59 20.5t-104 20.5q-111 0 -242 -107.5t-131 -260.5q0 -31 25.5 -56.5t56.5 -25.5q121 0 225 64.5t133 106.5t47.5 76.5t27.5 46t40 11.5t47 -22.5t30.5 -70.5t29 -107.5t26 -80 t29.5 -20.5l65 16q61 0 62 -61q0 -45 -62 -66q-37 -12 -72.5 -12t-68.5 16.5t-51 49.5q-31 53 -45 114l-9 35q-35 -59 -169 -139t-285 -80q-82 0 -143.5 61.5t-61.5 143.5zM246 1221q0 61 61 61q33 0 68 -29.5t35 -61.5t-28 -48.5t-60.5 -16.5t-54 30t-21.5 65zM614 1159 q1 62 62 62q33 0 67.5 -30t34.5 -61.5t-27.5 -48t-60.5 -16.5t-54.5 29.5t-21.5 64.5z" />
<glyph unicode="&#xe5;" d="M82 246q0 199 164 345t332 146q92 0 158.5 -33.5t66.5 -68.5q0 -61 -62 -62q-12 0 -59 20.5t-104 20.5q-111 0 -242 -107.5t-131 -260.5q0 -31 25.5 -56.5t56.5 -25.5q121 0 225 64.5t133 106.5t47.5 76.5t27.5 46t40 11.5t47 -22.5t30.5 -70.5t29 -107.5t26 -80 t29.5 -20.5l65 16q61 0 62 -61q0 -45 -62 -66q-37 -12 -72.5 -12t-68.5 16.5t-51 49.5q-31 53 -45 114l-9 35q-35 -59 -169 -139t-285 -80q-82 0 -143.5 61.5t-61.5 143.5zM246 1147q0 113 61.5 187.5t159.5 74.5t174 -81t76 -175t-59.5 -152.5t-172 -58.5t-176 64.5 t-63.5 140.5zM369 1160q0 -48 30.5 -71.5t70.5 -23.5t62.5 4t42 22.5t19.5 60.5t-37 88t-84 46t-75.5 -39t-28.5 -87z" />
<glyph unicode="&#xe6;" horiz-adv-x="1597" d="M82 205q0 133 95 260t224 199.5t226.5 72.5t155 -33.5t57.5 -68.5q0 -61 -62 -62q-12 0 -49 20.5t-98.5 20.5t-160.5 -53t-182 -152.5t-83 -203.5q0 -31 24.5 -56.5t57.5 -25.5q150 0 301 219q16 23 35 51q16 33 24 45q23 35 54.5 34t49 -26.5t34 -102.5t34.5 -77 q10 1 82 15q0 174 71.5 274t164 100t154 -61.5t61.5 -142.5q0 -162 -285 -254q72 -74 244 -74q100 0 241 47q43 14 50 14q61 0 61 -61q0 -45 -61 -66q-172 -57 -291 -57t-221.5 39t-151.5 123q-94 -18 -119 -19q-59 0 -95 41t-44 76q-66 -113 -211 -203q-92 -57 -178 -57 t-147.5 61.5t-61.5 143.5zM1026 311q203 66 203 140q0 31 -25.5 56t-62.5 25t-76 -59.5t-39 -161.5z" />
<glyph unicode="&#xe7;" horiz-adv-x="860" d="M82 287q0 182 118.5 316t270.5 134q84 0 154.5 -34.5t70.5 -67.5q0 -61 -61 -62q-27 0 -68 20.5t-96 20.5q-111 0 -188.5 -103t-77.5 -224q0 -164 164 -164q117 0 258 47q43 14 49 14q61 0 61 -61q0 -25 -12 -39t-74.5 -34.5t-158.5 -37.5q6 -47 61 -102 q102 -102 102 -217q0 -100 -80 -146q-66 -37 -161 -57q-10 -2 -25 -2q-61 0 -61 61q0 29 14 42.5t30.5 16.5t36 7t27.5 5t26.5 6t28 11.5t19.5 14.5q23 14 22.5 49t-17.5 63.5t-60 71.5q-74 74 -84 164h-2q-133 0 -210 77t-77 210z" />
<glyph unicode="&#xe8;" horiz-adv-x="819" d="M-66 123q0 39 76 70.5t119 54.5q-6 31 -6 63q0 160 67.5 272.5t169 112.5t157.5 -59t56 -142t-76.5 -152t-207.5 -148q72 -72 243 -72q100 0 242 47q43 14 49 14q61 0 62 -61q0 -45 -62 -66q-172 -57 -283.5 -57t-213 34.5t-146.5 100.5q-147 -74 -184 -74q-61 0 -62 62z M246 313q160 92 188 138q16 20 16.5 46.5t-22 51t-64.5 24.5t-80 -77t-38 -183zM369 1348q0 61 61 61q35 0 66 -61q72 -141 221 -263q61 -48 61 -75q0 -63 -61 -64q-25 0 -83.5 48t-134 135.5t-116.5 168.5q-14 27 -14 50z" />
<glyph unicode="&#xe9;" horiz-adv-x="819" d="M-66 123q0 39 76 70.5t119 54.5q-6 31 -6 63q0 160 67.5 272.5t169 112.5t157.5 -59t56 -142t-76.5 -152t-207.5 -148q72 -72 243 -72q100 0 242 47q43 14 49 14q61 0 62 -61q0 -45 -62 -66q-172 -57 -283.5 -57t-213 34.5t-146.5 100.5q-147 -74 -184 -74q-61 0 -62 62z M246 313q160 92 188 138q16 20 16.5 46.5t-22 51t-64.5 24.5t-80 -77t-38 -183zM492 983q0 23 22 45q102 102 178 320q18 61 66 61q61 0 61 -61q0 -10 -10 -41q-82 -240 -207 -365q-20 -20 -49 -20q-61 0 -61 61z" />
<glyph unicode="&#xea;" horiz-adv-x="819" d="M-66 123q0 39 76 70.5t119 54.5q-6 31 -6 63q0 160 67.5 272.5t169 112.5t157.5 -59t56 -142t-76.5 -152t-207.5 -148q72 -72 243 -72q100 0 242 47q43 14 49 14q61 0 62 -61q0 -45 -62 -66q-172 -57 -283.5 -57t-213 34.5t-146.5 100.5q-147 -74 -184 -74q-61 0 -62 62z M96 881q0 31 62 88q18 18 56 55t52.5 52.5t44 43t43 38.5t38 29.5t39.5 26t36 15.5q35 16 71.5 16t62.5 -11t43.5 -27.5t32.5 -43t24.5 -48t18.5 -54.5t13 -49q14 -57 15 -74q4 -14 4 -25q0 -61 -60 -61q-51 0 -63 61q-41 209 -83 209t-96.5 -46t-132 -122.5t-86 -85 t-12.5 -11.5t-10 -9q-18 -18 -24.5 -20.5t-10.5 -4.5q-8 -4 -16 -4q-61 0 -62 62zM246 313q160 92 188 138q16 20 16.5 46.5t-22 51t-64.5 24.5t-80 -77t-38 -183z" />
<glyph unicode="&#xeb;" horiz-adv-x="819" d="M-66 123q0 39 62 63q10 4 49 24.5t45 25.5q-8 18 -8 55q0 184 129 315t235.5 131t168 -50t61.5 -120.5t-33 -122t-102 -100.5q-96 -70 -281 -162q82 -59 227.5 -59t286.5 47q43 14 49 14q61 0 62 -61q0 -45 -62 -66q-172 -57 -331 -57q-228 0 -357 119q-2 0 -31 -17 q-74 -41 -108 -41q-61 0 -62 62zM82 1159q0 62 61 62q33 0 68 -30t35 -61.5t-28 -48t-60.5 -16.5t-54 29.5t-21.5 64.5zM205 291q348 174 348 262q0 61 -102 61q-61 0 -153.5 -97t-92.5 -226zM451 1098q0 61 61 61q33 0 67.5 -29.5t34.5 -61.5t-27.5 -48t-60 -16t-54 29.5 t-21.5 64.5z" />
<glyph unicode="&#xec;" horiz-adv-x="860" d="M-66 123q0 39 62 63q33 12 87 49t72.5 55.5t64.5 68t72.5 75t73 52t85.5 26.5q80 0 122.5 -57.5t51.5 -126.5q23 -184 71 -185q39 0 100.5 20.5t67.5 20.5q61 0 62 -61q0 -45 -62 -66q-111 -37 -179.5 -37t-111.5 57.5t-51 127.5q-23 184 -71 184q-27 0 -61 -33.5 t-54 -53t-47 -48.5q-115 -123 -234 -176q-37 -16 -59 -17q-61 0 -62 62zM328 1346q0 63 61 63q25 0 83 -48t134 -135t117 -169q14 -27 14 -49q0 -61 -61 -62q-35 0 -66 62q-72 141 -221 262q-61 49 -61 76z" />
<glyph unicode="&#xed;" horiz-adv-x="860" d="M-66 123q0 39 62 63q33 12 87 49t72.5 55.5t64.5 68t72.5 75t73 52t85.5 26.5q80 0 122.5 -57.5t51.5 -126.5q23 -184 71 -185q39 0 100.5 20.5t67.5 20.5q61 0 62 -61q0 -45 -62 -66q-111 -37 -179.5 -37t-111.5 57.5t-51 127.5q-23 184 -71 184q-27 0 -61 -33.5 t-54 -53t-47 -48.5q-115 -123 -234 -176q-37 -16 -59 -17q-61 0 -62 62zM246 1036q0 20 11 34.5t23.5 28t18.5 21.5q188 213 346 277q31 12 51 12q61 0 62 -61q0 -16 -19.5 -35t-65.5 -37.5t-138.5 -96t-145.5 -143.5q-53 -61 -82 -61q-61 0 -61 61z" />
<glyph unicode="&#xee;" horiz-adv-x="860" d="M-66 123q0 39 62 63q33 12 87 49t72.5 55.5t64.5 68t72.5 75t73 52t85.5 26.5q80 0 122.5 -57.5t51.5 -126.5q23 -184 71 -185q39 0 100.5 20.5t67.5 20.5q61 0 62 -61q0 -45 -62 -66q-111 -37 -179.5 -37t-111.5 57.5t-51 127.5q-23 184 -71 184q-27 0 -61 -33.5 t-54 -53t-47 -48.5q-115 -123 -234 -176q-37 -16 -59 -17q-61 0 -62 62zM88 836q0 31 62 88q18 18 56 55t52 52.5t44 43t43 38.5t38 29.5t40 26t36 15.5q35 16 71.5 16t62 -11t43 -27.5t33 -43t24.5 -48t18.5 -54.5t13.5 -49q14 -57 14 -74q4 -14 4 -25q0 -61 -59 -61 q-51 0 -63 61q-41 209 -83 209t-97.5 -45t-132.5 -123t-85 -86t-12 -11t-10 -9q-18 -18 -24.5 -20.5t-10.5 -4.5q-8 -4 -16 -4q-61 0 -62 62z" />
<glyph unicode="&#xef;" horiz-adv-x="860" d="M-66 123q0 39 62 63q33 12 87 49t72.5 55.5t64.5 68t72.5 75t73 52t85.5 26.5q80 0 122.5 -57.5t51.5 -126.5q23 -184 71 -185q39 0 100.5 20.5t67.5 20.5q61 0 62 -61q0 -45 -62 -66q-111 -37 -179.5 -37t-111.5 57.5t-51 127.5q-23 184 -71 184q-27 0 -61 -33.5 t-54 -53t-47 -48.5q-115 -123 -234 -176q-37 -16 -59 -17q-61 0 -62 62zM164 1139q0 61 61 61q33 0 68 -29.5t35 -61.5t-28 -48.5t-60.5 -16.5t-54 30t-21.5 65zM532 1077q1 62 62 62q33 0 67.5 -30t34.5 -61.5t-27.5 -48t-60.5 -16.5t-54.5 29.5t-21.5 64.5z" />
<glyph unicode="&#xf0;" d="M82 184q0 219 140 353.5t294 134.5q29 0 90.5 -10.5t83.5 -22.5q-29 45 -254 317q-129 -10 -155 -14h-15q-61 0 -61 62q0 55 61 61q10 0 76 8l-178 213q-33 41 -33 62q0 61 64 61q41 0 77 -47q35 -51 220 -277q262 20 348 21q61 0 61 -61.5t-67.5 -61.5t-247.5 -14 q176 -215 211 -267q47 -76 47 -162.5t-62.5 -194t-151.5 -180.5t-183.5 -119t-173 -46t-135 51t-56.5 133zM205 184q0 -29 24.5 -45t65.5 -16t124 43t173 134t123 200q-33 16 -98.5 32.5t-100.5 16.5q-100 0 -205.5 -97.5t-105.5 -267.5z" />
<glyph unicode="&#xf1;" horiz-adv-x="1290" d="M-66 123q0 39 66 63.5t93.5 70.5t62 105.5t48 80t34.5 49.5q20 31 36 38q43 23 95 23q84 0 127 -67.5t50 -147.5t21.5 -147.5t47 -67.5t62.5 51t52.5 112.5t72.5 113t120 51.5q53 0 77.5 -26t36 -40t20.5 -43t13 -42t12 -46q25 -113 45 -111q39 0 100.5 20.5t67.5 20.5 q61 0 62 -61q-1 -46 -62 -66q-111 -37 -172 -37t-96 45.5t-62.5 154t-41.5 108.5q-53 0 -113 -164q-23 -61 -74 -112.5t-128 -51.5t-120 67.5t-50 147.5t-21.5 147.5t-46.5 67.5q-23 0 -33 -12t-17.5 -23.5t-14.5 -23t-17 -29.5q-8 -18 -21 -39q-41 -72 -65 -106 q-49 -78 -146 -119q-37 -16 -59 -17q-61 0 -62 62zM307 1188q0 39 79 99.5t152.5 60.5t160.5 -39t108.5 -39t40 12t22.5 25.5t9.5 37t9.5 35.5q10 29 53 29q61 0 61.5 -66.5t-49 -131t-155.5 -64.5q-45 0 -128 39t-128 39t-96.5 -49.5t-77.5 -49.5q-62 1 -62 62z" />
<glyph unicode="&#xf2;" d="M82 388q0 73 22.5 129t59.5 56q61 0 61 -61q0 -25 -10 -49.5t-10 -58t21.5 -68.5t62.5 -75t123 -68.5t164.5 -28.5t142 43t59.5 121q0 129 -59.5 207.5t-165.5 78.5q-49 0 -99.5 -30.5t-64.5 -30.5q-61 0 -61 61q0 39 70.5 81t154.5 42q156 0 252 -113.5t96 -295.5 q0 -131 -97 -209t-208 -78t-202 27.5t-146 69.5t-96 91q-70 86 -70 159zM328 1346q0 63 61 63q25 0 83 -48t134 -135t117 -169q14 -27 14 -49q0 -61 -61 -62q-35 0 -66 62q-72 141 -221 262q-61 49 -61 76z" />
<glyph unicode="&#xf3;" d="M82 388q0 73 22.5 129t59.5 56q61 0 61 -61q0 -25 -10 -49.5t-10 -58t21.5 -68.5t62.5 -75t123 -68.5t164.5 -28.5t142 43t59.5 121q0 129 -59.5 207.5t-165.5 78.5q-49 0 -99.5 -30.5t-64.5 -30.5q-61 0 -61 61q0 39 70.5 81t154.5 42q156 0 252 -113.5t96 -295.5 q0 -131 -97 -209t-208 -78t-202 27.5t-146 69.5t-96 91q-70 86 -70 159zM328 1036q0 20 11 34.5t23.5 28t18.5 21.5q188 213 346 277q31 12 51 12q61 0 62 -61q0 -16 -19.5 -35t-65.5 -37.5t-138.5 -96t-144.5 -141t-83 -63.5q-61 0 -61 61z" />
<glyph unicode="&#xf4;" d="M82 388q0 73 22.5 129t59.5 56q61 0 61 -61q0 -25 -10 -49.5t-10 -58t21.5 -68.5t62.5 -75t123 -68.5t164.5 -28.5t142 43t59.5 121q0 129 -59.5 207.5t-165.5 78.5q-49 0 -99.5 -30.5t-64.5 -30.5q-61 0 -61 61q0 39 70.5 81t154.5 42q156 0 252 -113.5t96 -295.5 q0 -131 -97 -209t-208 -78t-202 27.5t-146 69.5t-96 91q-70 86 -70 159zM164 1044q0 31 61 89q18 18 56 55t52.5 52t44.5 43t43 39t37.5 29.5t40 25.5t36.5 16q35 16 71.5 16t62 -11.5t43 -27.5t33 -43t24.5 -48.5t18.5 -54t13.5 -48.5q14 -57 14 -74q4 -14 4 -25 q0 -61 -59 -61q-51 0 -64 61q-41 209 -83 209t-96 -45t-132 -123l-86 -86q-8 -8 -12 -11t-11 -9q-18 -18 -24 -20.5t-10 -4.5q-8 -4 -17 -4q-61 0 -61 61z" />
<glyph unicode="&#xf5;" d="M82 388q0 73 22.5 129t59.5 56q61 0 61 -61q0 -25 -10 -49.5t-10 -58t21.5 -68.5t62.5 -75t123 -68.5t164.5 -28.5t142 43t59.5 121q0 129 -59.5 207.5t-165.5 78.5q-49 0 -99.5 -30.5t-64.5 -30.5q-61 0 -61 61q0 39 70.5 81t154.5 42q156 0 252 -113.5t96 -295.5 q0 -131 -97 -209t-208 -78t-202 27.5t-146 69.5t-96 91q-70 86 -70 159zM164 1188q0 39 79 99.5t152.5 60.5t160.5 -39t108.5 -39t40 12t22.5 25.5t9 37t9 35.5q10 29 54 29q61 0 61 -66.5t-49 -131t-156 -64.5q-45 0 -128 39t-128 39t-96 -49.5t-78 -49.5q-61 1 -61 62z " />
<glyph unicode="&#xf6;" d="M82 388q0 73 22.5 129t59.5 56q61 0 61 -61q0 -25 -10 -49.5t-10 -58t21.5 -68.5t62.5 -75t123 -68.5t164.5 -28.5t142 43t59.5 121q0 129 -59.5 207.5t-165.5 78.5q-49 0 -99.5 -30.5t-64.5 -30.5q-61 0 -61 61q0 39 70.5 81t154.5 42q156 0 252 -113.5t96 -295.5 q0 -131 -97 -209t-208 -78t-202 27.5t-146 69.5t-96 91q-70 86 -70 159zM205 1221q0 61 61 61q33 0 68 -29.5t35 -61.5t-28 -48.5t-60.5 -16.5t-54 30t-21.5 65zM573 1159q1 62 62 62q33 0 67.5 -30t34.5 -61.5t-27.5 -48t-60.5 -16.5t-54.5 29.5t-21.5 64.5z" />
<glyph unicode="&#xf7;" d="M82 635q0 49 61 61q205 41 697 41q61 0 61 -61.5t-61 -61.5q-481 0 -676 -39q-16 -2 -21 -2q-61 0 -61 62zM389 983q1 61 62 61q33 0 67 -28q35 -29 35 -61.5t-27.5 -49t-60.5 -16.5t-54.5 29.5t-21.5 64.5zM430 389q1 62 62 62q33 0 67 -29q35 -29 35 -61.5t-27.5 -49 t-60.5 -16.5t-54.5 29.5t-21.5 64.5z" />
<glyph unicode="&#xf8;" d="M82 473q0 172 116 321.5t253 161.5q66 227 100 396q14 57 63 57q59 0 60 -61q0 -12 -24.5 -129t-51.5 -209q16 2 53 2q113 0 181.5 -99.5t68.5 -216.5q0 -209 -141.5 -360.5t-382.5 -151.5q-25 0 -35 2q-109 -305 -119 -387q-2 -16 -18.5 -34.5t-42.5 -18.5q-61 0 -62 61 q0 33 16.5 94.5t104.5 325.5q-63 37 -101 102.5t-38 143.5zM205 491.5q0 -90.5 57 -141.5l148 463q-84 -41 -144.5 -136t-60.5 -185.5zM383 307q178 2 286.5 112.5t108.5 276.5q0 78 -33 135t-90 57.5t-94 -9.5q-63 -229 -178 -572z" />
<glyph unicode="&#xf9;" d="M82 234.5q0 101.5 41 347.5q10 61 61 61q61 0 62 -61q0 -4 -20.5 -127t-20.5 -199t21.5 -104.5t70.5 -28.5t85 24.5t63.5 65.5t51 88t42 101.5t30.5 93.5q29 102 29 114q18 61 78 62q31 0 45 -12.5t17 -33t11.5 -77.5t20.5 -115q10 -57 27 -123q37 -147 84 -147 q39 0 69.5 10t36.5 10q61 0 62 -61q0 -45 -55.5 -63.5t-102.5 -18.5t-78 15.5t-51 37.5q-16 20 -37 62q-23 45 -42 104t-21.5 69.5t-3.5 22t-3 17.5q-123 -369 -348 -369q-109 0 -167 66.5t-58 168zM492 1346q0 63 61 63q25 0 83 -48t134 -135t117 -169q14 -27 14 -49 q0 -61 -61 -62q-35 0 -66 62q-72 141 -221 262q-61 49 -61 76z" />
<glyph unicode="&#xfa;" d="M82 234.5q0 101.5 41 347.5q10 61 61 61q61 0 62 -61q0 -4 -20.5 -127t-20.5 -199t21.5 -104.5t70.5 -28.5t85 24.5t63.5 65.5t51 88t42 101.5t30.5 93.5q29 102 29 114q18 61 78 62q31 0 45 -12.5t17 -33t11.5 -77.5t20.5 -115q10 -57 27 -123q37 -147 84 -147 q39 0 69.5 10t36.5 10q61 0 62 -61q0 -45 -55.5 -63.5t-102.5 -18.5t-78 15.5t-51 37.5q-16 20 -37 62q-23 45 -42 104t-21.5 69.5t-3.5 22t-3 17.5q-123 -369 -348 -369q-109 0 -167 66.5t-58 168zM410 1036q0 20 11 34.5t23.5 28t18.5 21.5q188 213 346 277q31 12 51 12 q61 0 62 -61q0 -16 -19.5 -35t-65.5 -37.5t-138.5 -96t-144.5 -141t-83 -63.5q-61 0 -61 61z" />
<glyph unicode="&#xfb;" d="M82 234.5q0 101.5 41 347.5q10 61 61 61q61 0 62 -61q0 -4 -20.5 -127t-20.5 -199t21.5 -104.5t70.5 -28.5t85 24.5t63.5 65.5t51 88t42 101.5t30.5 93.5q29 102 29 114q18 61 78 62q31 0 45 -12.5t17 -33t11.5 -77.5t20.5 -115q10 -57 27 -123q37 -147 84 -147 q39 0 69.5 10t36.5 10q61 0 62 -61q0 -45 -55.5 -63.5t-102.5 -18.5t-78 15.5t-51 37.5q-16 20 -37 62q-23 45 -42 104t-21.5 69.5t-3.5 22t-3 17.5q-123 -369 -348 -369q-109 0 -167 66.5t-58 168zM164 1044q0 31 61 89q18 18 56 55t52.5 52t44.5 43t43 39t37.5 29.5 t40 25.5t36.5 16q35 16 71.5 16t62 -11.5t43 -27.5t33 -43t24.5 -48.5t18.5 -54t13.5 -48.5q14 -57 14 -74q4 -14 4 -25q0 -61 -59 -61q-51 0 -64 61q-41 209 -83 209t-96 -45t-132 -123l-86 -86q-8 -8 -12 -11t-11 -9q-18 -18 -24 -20.5t-10 -4.5q-8 -4 -17 -4 q-61 0 -61 61z" />
<glyph unicode="&#xfc;" d="M82 234.5q0 101.5 41 347.5q10 61 61 61q61 0 62 -61q0 -4 -20.5 -127t-20.5 -199t21.5 -104.5t70.5 -28.5t85 24.5t63.5 65.5t51 88t42 101.5t30.5 93.5q29 102 29 114q18 61 78 62q31 0 45 -12.5t17 -33t11.5 -77.5t20.5 -115q10 -57 27 -123q37 -147 84 -147 q39 0 69.5 10t36.5 10q61 0 62 -61q0 -45 -55.5 -63.5t-102.5 -18.5t-78 15.5t-51 37.5q-16 20 -37 62q-23 45 -42 104t-21.5 69.5t-3.5 22t-3 17.5q-123 -369 -348 -369q-109 0 -167 66.5t-58 168zM225 1221q1 61 62 61q33 0 67.5 -29.5t34.5 -61.5t-27.5 -48.5 t-60.5 -16.5t-54.5 30t-21.5 65zM594 1159q0 62 61 62q33 0 68 -30t35 -61.5t-28 -48t-60.5 -16.5t-54 29.5t-21.5 64.5z" />
<glyph unicode="&#xfd;" horiz-adv-x="901" d="M82 688q0 49 58.5 49t64.5 -61q14 -135 48 -282.5t75 -147.5q133 0 206.5 67.5t161.5 239.5q25 61 62 61q61 0 61 -61q0 -258 -23.5 -554t-58.5 -454q-39 -184 -184 -184q-266 0 -266 356q0 98 54 190.5t122.5 92.5t68.5 -61q0 -14 -28 -35q-94 -66 -94 -183.5t29.5 -177 t113.5 -59.5q49 0 68 94q39 182 63 578q8 125 6 151q-43 -61 -62.5 -76.5l-39 -31t-36.5 -24.5t-43 -20.5t-52 -17.5q-61 -14 -129 -14q-109 0 -156 123q-63 162 -88 409q-2 12 -2 33zM246 1036q0 20 11 34.5t23.5 28t18.5 21.5q188 213 346 277q31 12 51 12q61 0 62 -61 q0 -16 -19.5 -35t-65.5 -37.5t-138.5 -96t-145.5 -143.5q-53 -61 -82 -61q-61 0 -61 61z" />
<glyph unicode="&#xfe;" d="M82 -144.5q0 191.5 41 402.5v340q0 221 -21 631q-2 25 -11 62.5t-9 56.5q0 61 61 61q45 0 62.5 -67.5t19.5 -112.5q20 -410 21 -631q57 94 134 127t217 33t222 -67.5t82 -178.5q0 -176 -180 -250q-106 -43 -209 -51q-145 -14 -274 -14q-33 -164 -33 -344.5t35 -389.5 l6 -32v-9q0 -61 -62 -61q-51 0 -61 57q-41 246 -41 437.5zM266 319q365 0 467 91q45 41 45 101t-45 92t-123 32t-125 -8.5t-92 -40t-73.5 -95t-53.5 -172.5z" />
<glyph unicode="&#xff;" horiz-adv-x="901" d="M82 688q0 49 58.5 49t64.5 -61q14 -135 48 -282.5t75 -147.5q133 0 206.5 67.5t161.5 239.5q25 61 62 61q61 0 61 -61q0 -258 -23.5 -554t-58.5 -454q-39 -184 -184 -184q-266 0 -266 356q0 98 54 190.5t122.5 92.5t68.5 -61q0 -14 -28 -35q-94 -66 -94 -183.5t29.5 -177 t113.5 -59.5q49 0 68 94q39 182 63 578q8 125 6 151q-43 -61 -62.5 -76.5l-39 -31t-36.5 -24.5t-43 -20.5t-52 -17.5q-61 -14 -129 -14q-109 0 -156 123q-63 162 -88 409q-2 12 -2 33zM246 1221q0 61 61 61q33 0 68 -29.5t35 -61.5t-28 -48.5t-60.5 -16.5t-54 30t-21.5 65z M614 1159q1 62 62 62q33 0 67.5 -30t34.5 -61.5t-27.5 -48t-60.5 -16.5t-54.5 29.5t-21.5 64.5z" />
<glyph unicode="&#x152;" horiz-adv-x="1740" d="M82 637q0 182 66.5 304t218.5 122q39 0 71 -8q78 49 122 74.5t120 48t156 22.5q178 0 290 -80q63 80 179 80q76 0 211 -90q33 -23 32.5 -51.5t-18 -48t-41 -19.5t-89.5 45t-95 45q-66 0 -86 -39q0 -8 14 -29.5t18 -33.5q6 -6 32 -26.5t35 -30t35.5 -30t43.5 -36.5 q20 -18 41 -45q45 -57 45 -113.5t-52.5 -115t-114 -106.5t-113.5 -105.5t-52 -98.5q0 -63 103.5 -106t201.5 -43t240 47q43 14 49 14q61 0 61 -61q0 -45 -61 -66q-172 -57 -293 -57t-248 52t-168 155l-75 -70q-160 -137 -382.5 -137t-359.5 184.5t-137 452.5zM205 637 q0 -227 107.5 -370.5t274.5 -143.5t299 108.5t212 217t80 239.5t-27 205q-33 37 -51 88q-82 98 -264 98q-82 0 -144.5 -24.5t-142.5 -75.5q51 -61 51 -146t-31 -116q-18 -20 -43.5 -20.5t-45 17t-19.5 42.5l14 65q0 49 -30.5 86t-77.5 37q-162 0 -162 -307zM1298 627 q53 49 58 59q-3 41 -56 94q4 -53 4.5 -82.5t-6.5 -70.5z" />
<glyph unicode="&#x153;" horiz-adv-x="1474" d="M82 342q0 78 82 143q0 100 62.5 176t155.5 76t178 -30.5t218 -133.5q47 41 136.5 82t170.5 41q150 0 229 -49t79 -135q0 -57 -37 -98q-35 -41 -90 -58q-95 -28 -181 -28q-150 0 -190 57q-6 -72 -45 -147q33 -35 124 -75t202.5 -40t253.5 47q43 14 49 14q61 0 61 -61 q0 -45 -61 -66q-172 -57 -296 -57t-238 43t-169 100q-115 -143 -262 -143q-182 0 -307 99.5t-125 242.5zM205 346q0 -82 76.5 -152.5t232.5 -70.5q86 0 180 113q-31 72 -30.5 126t41.5 113q-20 20 -84 61.5t-79.5 46.5t-41.5 15q-43 16 -99.5 16t-85 -38.5t-28.5 -88 t-20.5 -74t-41 -38t-20.5 -29.5zM864 485q16 -23 25 -53q10 35 61 35q20 0 54 -8t92.5 -8t116 16t57.5 45t-57.5 45t-120 16t-128 -28.5t-100.5 -59.5z" />
<glyph unicode="&#x178;" d="M82 881q0 61 59 61q23 0 64 -49q8 -8 55 -69.5t77 -91.5t90 -61.5t121.5 -31.5t130.5 43t97 104q27 61 64 62q61 0 61 -62q0 -109 -67 -270l-183 -461q-22 -55 -63 -55q-61 0 -62 61q0 10 15 50l176 450q-78 -45 -143.5 -45t-108.5 10.5t-76 22.5t-68.5 38.5t-56 43 t-51.5 52.5t-40 48t-35.5 49t-31 41t-14.5 26.5t-10 33.5zM246 1221q0 61 61 61q33 0 68 -29t35 -61.5t-28 -49t-60.5 -16.5t-54 30t-21.5 65zM614 1159q1 62 62 62q33 0 67 -29q35 -29 35 -61.5t-27.5 -49t-60.5 -16.5t-54.5 29.5t-21.5 64.5z" />
<glyph unicode="&#x2c6;" horiz-adv-x="737" d="M82 1126q0 27 61 88l53.5 53.5t44 42t33 29t31 22.5t34.5 20t34 14q35 14 81 14t85 -29t61 -77q55 -119 55 -178.5t-59 -59.5q-51 0 -64 61q-10 49 -32.5 104.5t-48.5 55.5q-43 0 -86 -34.5t-120 -110.5t-102 -76q-61 0 -61 61z" />
<glyph unicode="&#x2dc;" horiz-adv-x="819" d="M82 1249q0 27 24 51q72 72 185 72q61 0 128.5 -41t92.5 -41q82 0 101.5 59.5t62.5 59.5q61 0 61 -61q0 -20 -4 -33q-23 -66 -81 -107t-129.5 -41t-139 41t-92.5 41q-61 0 -92 -30.5t-56 -30.5q-61 0 -61 61z" />
<glyph unicode="&#x2000;" horiz-adv-x="735" />
<glyph unicode="&#x2001;" horiz-adv-x="1470" />
<glyph unicode="&#x2002;" horiz-adv-x="735" />
<glyph unicode="&#x2003;" horiz-adv-x="1470" />
<glyph unicode="&#x2004;" horiz-adv-x="490" />
<glyph unicode="&#x2005;" horiz-adv-x="367" />
<glyph unicode="&#x2006;" horiz-adv-x="245" />
<glyph unicode="&#x2007;" horiz-adv-x="245" />
<glyph unicode="&#x2008;" horiz-adv-x="183" />
<glyph unicode="&#x2009;" horiz-adv-x="294" />
<glyph unicode="&#x200a;" horiz-adv-x="81" />
<glyph unicode="&#x2010;" d="M164 346q0 43 61 64q123 41 328 41q61 0 246 -21q61 -8 61 -61q0 -61 -61 -62q-4 0 -96.5 10.5t-149.5 10.5q-184 0 -285 -35q-18 -6 -43 -6q-61 0 -61 59z" />
<glyph unicode="&#x2011;" d="M164 346q0 43 61 64q123 41 328 41q61 0 246 -21q61 -8 61 -61q0 -61 -61 -62q-4 0 -96.5 10.5t-149.5 10.5q-184 0 -285 -35q-18 -6 -43 -6q-61 0 -61 59z" />
<glyph unicode="&#x2012;" d="M164 346q0 43 61 64q123 41 328 41q61 0 246 -21q61 -8 61 -61q0 -61 -61 -62q-4 0 -96.5 10.5t-149.5 10.5q-184 0 -285 -35q-18 -6 -43 -6q-61 0 -61 59z" />
<glyph unicode="&#x2013;" horiz-adv-x="1228" d="M82 635q0 49 57 61q82 14 416 27.5t530 13.5q61 0 61.5 -61.5t-61.5 -61.5q-373 0 -635 -18t-286 -23h-21q-61 1 -61 62z" />
<glyph unicode="&#x2014;" horiz-adv-x="2457" d="M82 635q0 29 14.5 42t46 19t943 23.5t1228.5 17.5q61 0 61.5 -61.5t-61.5 -61.5q-317 0 -1218 -17t-932 -24h-21q-61 0 -61 62z" />
<glyph unicode="&#x2018;" horiz-adv-x="491" d="M82 938q0 25 61 86q85 84 142 324q14 61 63 61q61 0 62 -61q0 -8 -7 -33q-63 -266 -174 -377q-57 -57 -83.5 -57t-45 16t-18.5 41z" />
<glyph unicode="&#x2019;" horiz-adv-x="614" d="M123 918q0 14 8 30q115 215 115 400q0 61 61.5 61t61.5 -61q0 -203 -115 -430q-31 -61 -70 -62q-61 0 -61 62z" />
<glyph unicode="&#x201a;" horiz-adv-x="614" d="M123 -430q0 14 8 31q115 215 115 399q0 61 61.5 61t61.5 -61q0 -203 -115 -430q-31 -61 -70 -62q-61 0 -61 62z" />
<glyph unicode="&#x201c;" horiz-adv-x="675" d="M82 758l2 20q6 37 15.5 98.5t15.5 95.5t16 80t22.5 72.5t30.5 51.5q35 49 103 49q55 0 88 -33l18 -21q20 -20 51 -79q0 86 18.5 146t31 74.5t38.5 14.5q61 0 62 -61q0 -25 -6 -47.5t-20.5 -150.5t-14.5 -163q0 -61 -61 -61q-76 0 -162 192q-29 66 -42.5 66t-24.5 -31 t-20.5 -79t-16.5 -94t-13 -89t-8 -51q-12 -61 -62 -62q-61 0 -61 62z" />
<glyph unicode="&#x201d;" horiz-adv-x="634" d="M82 942q0 14 6 51q37 223 48 305t24.5 96.5t44.5 14.5q61 0 61 -61q0 -27 -45 -297q223 211 271 211q61 0 61 -62q0 -35 -47 -166q-68 -186 -78 -241.5t-59 -55.5q-61 0 -62 62q0 57 62 219q-43 -43 -78 -68q-100 -70 -148 -69q-61 0 -61 61z" />
<glyph unicode="&#x201e;" horiz-adv-x="634" d="M82 -197q0 14 6 52q37 223 48 305t24.5 96t44.5 14q61 0 61 -61q0 -27 -45 -297q223 211 271 211q61 0 61 -62q0 -35 -47 -165q-68 -186 -78 -241.5t-59 -55.5q-61 0 -62 61q0 57 62 219q-43 -43 -78 -67q-100 -70 -148 -70q-61 0 -61 61z" />
<glyph unicode="&#x2022;" d="M328 369q0 80 49 121.5t135 41.5q143 0 143 -122q0 -51 -63.5 -107.5t-124.5 -56.5t-100 39t-39 84z" />
<glyph unicode="&#x2026;" d="M82 180q0 62 61 62q41 0 91.5 -20.5t72 -43t21.5 -53.5t-24.5 -47.5t-59.5 -16.5t-98.5 38t-63.5 81zM492 115q0 61 61 61q33 0 67.5 -29.5t34.5 -61.5t-27.5 -48.5t-60 -16.5t-54 30t-21.5 65zM737 94q1 62 62 62q33 0 67.5 -30t34.5 -61.5t-27.5 -48t-60.5 -16.5 t-54.5 29.5t-21.5 64.5z" />
<glyph unicode="&#x202f;" horiz-adv-x="294" />
<glyph unicode="&#x2039;" horiz-adv-x="737" d="M82 369q0 70 51 120l92 92t82 97.5t23.5 40t38.5 18.5q61 0 61 -61q0 -14 -8 -39q-12 -43 -176 -207q-41 -41 -41 -66.5t41 -41.5l348 -138q61 -22 61 -61q0 -61 -61 -62q-27 0 -39 7l-309 125q-164 70 -164 176z" />
<glyph unicode="&#x203a;" horiz-adv-x="737" d="M82 676q0 61 61 61q18 0 52 -22.5t104 -56t135.5 -75.5t143 -114t77.5 -117t-28 -78q-33 -33 -78 -53q-86 -37 -127 -45t-98.5 -41t-90.5 -74q-45 -61 -69 -61q-62 0 -62 61q0 33 39 80t113 94.5t123 57.5q156 31 155.5 56.5t-93.5 89t-176 104.5t-132 71.5t-49 61.5z " />
<glyph unicode="&#x205f;" horiz-adv-x="367" />
<glyph unicode="&#x20ac;" horiz-adv-x="1802" d="M61 670q0 43 56 61l219 80q6 268 188.5 433t425.5 165q70 0 127.5 -54.5t57.5 -123t-62 -68.5q-18 0 -35.5 31t-38 61.5t-49.5 30.5q-193 0 -335 -124t-154 -306q197 66 488.5 115t319 55t42.5 6q61 0 61 -55t-57 -68q-37 -8 -242 -43q-428 -74 -612 -141q10 -84 28 -147 q137 43 442.5 93t343.5 58t52 8q61 0 62 -59q0 -51 -58 -64q-33 -6 -342 -57t-442 -90q145 -219 362 -287q184 -57 383 -57t346 37q37 10 41 10q61 0 62 -59q-1 -50 -58 -64q-188 -47 -372 -47q-305 0 -521.5 97.5t-367.5 332.5q-25 -6 -66 -20q-104 -37 -129 -37 q-61 0 -61 59q0 43 55 62.5t150 50.5q-20 57 -29 137q-23 -6 -80 -27q-119 -45 -139 -45q-61 0 -62 60z" />
<glyph unicode="&#x2122;" horiz-adv-x="2048" d="M82 1347.5q0 61.5 61 61.5q594 0 697 -41q61 -25 61 -82q0 -35 -16.5 -69.5t-44.5 -38.5q-410 -63 -410 -97q0 -8 31 -94t31 -164v-295q0 -61 -61.5 -61t-61.5 61v295q0 59 -31 145.5t-31 112t4 42t23.5 41t54.5 40.5q88 45 266 68q-27 2 -249 8t-263 6q-61 0 -61 61.5z M1004 526q0 176 13 424t36 336q33 123 135 123q43 0 75.5 -27.5t41 -46t26 -66.5t50 -202t60 -254t54.5 -100q18 0 41 102.5t47.5 235.5t38.5 174q43 123 140.5 123t140.5 -123q31 -78 47 -269.5t16 -365.5q0 -61 -61.5 -61.5t-61.5 61.5q0 158 -21.5 396.5t-60.5 238.5 q-18 0 -40.5 -105.5t-46 -237.5t-32 -151.5t-17.5 -41t-16 -34t-24 -28.5q-31 -35 -90 -37q-98 0 -149 123q-29 70 -62 218t-56.5 251.5t-39.5 103.5q-27 0 -44.5 -287.5t-17.5 -472.5q0 -59 -61 -59q-33 0 -47 19.5t-14 39.5z" />
<glyph unicode="&#xe000;" horiz-adv-x="737" d="M0 0v737h737v-737h-737z" />
</font>
</defs>
</svg>
